<?xml version="1.0" encoding="UTF-8" standalone="no"?>
<svg
   version="1.1"
   viewBox="0 0 270 270"
   id="svg3004"
   sodipodi:docname="sitory.svg"
   inkscape:version="1.2.2 (732a01da63, 2022-12-09, custom)"
   xmlns:inkscape="http://www.inkscape.org/namespaces/inkscape"
   xmlns:sodipodi="http://sodipodi.sourceforge.net/DTD/sodipodi-0.dtd"
   xmlns:xlink="http://www.w3.org/1999/xlink"
   xmlns="http://www.w3.org/2000/svg"
   xmlns:svg="http://www.w3.org/2000/svg">
  <defs
     id="defs3008">
    <linearGradient
       inkscape:collect="always"
       id="linearGradient5533">
      <stop
         style="stop-color:#7d1190;stop-opacity:1;"
         offset="0.25"
         id="stop5539" />
      <stop
         style="stop-color:#34139b;stop-opacity:1;"
         offset="0.5"
         id="stop5537" />
    </linearGradient>
    <linearGradient
       inkscape:collect="always"
       xlink:href="#linearGradient5533"
       id="linearGradient5535"
       x1="76.452255"
       y1="244.3076"
       x2="195.10551"
       y2="244.3076"
       gradientUnits="userSpaceOnUse"
       spreadMethod="pad"
       gradientTransform="translate(-0.26270482,19.51248)" />
    <linearGradient
       inkscape:collect="always"
       xlink:href="#linearGradient5533"
       id="linearGradient366"
       gradientUnits="userSpaceOnUse"
       gradientTransform="translate(1.9971901,25.956798)"
       x1="76.452255"
       y1="244.3076"
       x2="195.10551"
       y2="244.3076"
       spreadMethod="pad" />
    <linearGradient
       inkscape:collect="always"
       xlink:href="#linearGradient5533"
       id="linearGradient368"
       gradientUnits="userSpaceOnUse"
       gradientTransform="translate(1.9971901,25.956798)"
       x1="76.452255"
       y1="244.3076"
       x2="195.10551"
       y2="244.3076"
       spreadMethod="pad" />
    <linearGradient
       inkscape:collect="always"
       xlink:href="#linearGradient5533"
       id="linearGradient370"
       gradientUnits="userSpaceOnUse"
       gradientTransform="translate(1.9971901,25.956798)"
       x1="76.452255"
       y1="244.3076"
       x2="195.10551"
       y2="244.3076"
       spreadMethod="pad" />
    <linearGradient
       inkscape:collect="always"
       xlink:href="#linearGradient5533"
       id="linearGradient372"
       gradientUnits="userSpaceOnUse"
       gradientTransform="translate(1.9971901,25.956798)"
       x1="76.452255"
       y1="244.3076"
       x2="195.10551"
       y2="244.3076"
       spreadMethod="pad" />
    <linearGradient
       inkscape:collect="always"
       xlink:href="#linearGradient5533"
       id="linearGradient374"
       gradientUnits="userSpaceOnUse"
       gradientTransform="translate(1.9971901,25.956798)"
       x1="76.452255"
       y1="244.3076"
       x2="195.10551"
       y2="244.3076"
       spreadMethod="pad" />
    <linearGradient
       inkscape:collect="always"
       xlink:href="#linearGradient5533"
       id="linearGradient376"
       gradientUnits="userSpaceOnUse"
       gradientTransform="translate(1.9971901,25.956798)"
       x1="76.452255"
       y1="244.3076"
       x2="195.10551"
       y2="244.3076"
       spreadMethod="pad" />
    <linearGradient
       inkscape:collect="always"
       xlink:href="#linearGradient5533"
       id="linearGradient707"
       gradientUnits="userSpaceOnUse"
       gradientTransform="translate(1.9971901,25.956798)"
       x1="76.452255"
       y1="244.3076"
       x2="195.10551"
       y2="244.3076"
       spreadMethod="pad" />
    <linearGradient
       inkscape:collect="always"
       xlink:href="#linearGradient5533"
       id="linearGradient709"
       gradientUnits="userSpaceOnUse"
       gradientTransform="translate(1.9971901,25.956798)"
       x1="76.452255"
       y1="244.3076"
       x2="195.10551"
       y2="244.3076"
       spreadMethod="pad" />
  </defs>
  <sodipodi:namedview
     id="namedview3006"
     pagecolor="#ffffff"
     bordercolor="#666666"
     borderopacity="1.0"
     inkscape:showpageshadow="2"
     inkscape:pageopacity="0.0"
     inkscape:pagecheckerboard="0"
     inkscape:deskcolor="#d1d1d1"
     showgrid="false"
     inkscape:zoom="2.4722548"
     inkscape:cx="119.52651"
     inkscape:cy="138.5375"
     inkscape:window-width="1904"
     inkscape:window-height="1040"
     inkscape:window-x="8"
     inkscape:window-y="32"
     inkscape:window-maximized="0"
     inkscape:current-layer="text3907" />
  <g
     id="g6631"
     transform="translate(0.26270482,-19.51248)">
    <g
       aria-label="sitory"
       id="text3907"
       style="font-size:59.8354px;line-height:1.25;font-family:'EB Garamond';-inkscape-font-specification:'EB Garamond, Normal';fill:url(#linearGradient5535);stroke-width:1.49588">
      <g
         id="g705"
         style="fill:url(#linearGradient709)"
         transform="translate(-2.2598949,-6.4443179)">
        <g
           id="g4167"
           transform="translate(2.2598949,-2.624858)"
           style="fill:url(#linearGradient707)">
          <path
             stroke="#81d9ea"
             vector-effect="non-scaling-stroke"
             d="M 82.16,67.96 Q 74.6,79.66 62.91,87.95"
             id="path2756"
             style="fill:none;stroke-width:2;stroke-linecap:butt" />
          <path
             stroke="#8dbde1"
             vector-effect="non-scaling-stroke"
             d="m 62.91,87.95 q -7.42,-0.19 -12.64,4.01 -4.83,3.89 -5.98,10.6 -2.08,12.14 10.33,18.88"
             id="path2758"
             style="fill:none;stroke-width:2;stroke-linecap:butt" />
          <path
             stroke="#85dfea"
             vector-effect="non-scaling-stroke"
             d="m 54.62,121.44 q -0.44,13.61 0.19,27.32"
             id="path2760"
             style="fill:none;stroke-width:2;stroke-linecap:butt" />
          <path
             stroke="#ababd3"
             vector-effect="non-scaling-stroke"
             d="m 54.81,148.76 -5.35,3.74"
             id="path2762"
             style="fill:none;stroke-width:2;stroke-linecap:butt" />
          <path
             stroke="#e1bbc6"
             vector-effect="non-scaling-stroke"
             d="m 49.46,152.5 q -7.27,6.97 -4.96,16.5 2.8,11.54 15,12.96"
             id="path2764"
             style="fill:none;stroke-width:2;stroke-linecap:butt" />
          <path
             stroke="#be88c8"
             vector-effect="non-scaling-stroke"
             d="m 59.5,181.96 2.78,0.18 a 3.12,0.65 0.3 0 1 2.1,0.45 q 9.62,6.86 15.83,15.35 1.97,2.69 1.98,2.71 0.87,1.5 0.86,3.35 -0.02,5.88 2.88,10.44 2.82,4.43 7.86,6.72 9.41,4.26 18.68,-3.7 a 2.95,2.96 24.8 0 1 1.92,-0.71 l 31.86,-0.04"
             id="path2766"
             style="fill:none;stroke-width:2;stroke-linecap:butt" />
          <path
             stroke="#9a89cd"
             vector-effect="non-scaling-stroke"
             d="m 146.25,216.71 8.44,0.04 a 3.79,4 65.5 0 1 2.44,0.84 q 13.65,10.91 24.82,-1.31"
             id="path2768"
             style="fill:none;stroke-width:2;stroke-linecap:butt" />
          <path
             stroke="#938acf"
             vector-effect="non-scaling-stroke"
             d="m 181.95,216.28 q 4.3,-5.48 5.17,-12.34 0.31,-2.38 1.31,-3.94 7.14,-11.06 18.63,-17.75 a 1.56,1.5 33 0 1 0.93,-0.18 q 4.98,0.6 9.19,-2.14 4.89,-3.18 6.98,-8.17 2.01,-4.78 1.05,-10.19 -1.54,-8.72 -10.41,-12.77"
             id="path2770"
             style="fill:none;stroke-width:2;stroke-linecap:butt" />
          <path
             stroke="#87d3e9"
             vector-effect="non-scaling-stroke"
             d="m 214.8,148.8 q 0.97,-13.86 0.2,-27.51"
             id="path2772"
             style="fill:none;stroke-width:2;stroke-linecap:butt" />
          <path
             stroke="#938acf"
             vector-effect="non-scaling-stroke"
             d="m 215,121.29 q 8.27,-4.33 9.98,-12.23 1.64,-7.58 -2.82,-13.95 -5.1,-7.29 -15.69,-7.04"
             id="path2774"
             style="fill:none;stroke-width:2;stroke-linecap:butt" />
          <path
             stroke="#89a8dc"
             vector-effect="non-scaling-stroke"
             d="m 206.47,88.07 q -9.28,-6.78 -16.32,-15.73 -1.2,-1.52 -1.95,-2.97 -1.16,-2.24 -1.2,-3.37 -0.43,-10.78 -8.13,-16.25 -5.11,-3.63 -10.88,-3.44 -6.16,0.21 -11.24,4.73"
             id="path2776"
             style="fill:none;stroke-width:2;stroke-linecap:butt" />
          <path
             stroke="#81e6f2"
             vector-effect="non-scaling-stroke"
             d="m 156.75,51.04 q -3.88,-0.53 -7.73,0.28"
             id="path2778"
             style="fill:none;stroke-width:2;stroke-linecap:butt" />
          <path
             stroke="#87c5e5"
             vector-effect="non-scaling-stroke"
             d="m 149.02,51.32 q -18,-0.69 -35.96,-0.15 a 1.23,1.21 64.4 0 1 -0.86,-0.31 q -4.45,-4.03 -9.98,-4.59 -5.51,-0.57 -10.48,2.47 -5.33,3.26 -7.7,9.36 -0.65,1.67 -1.06,4.9 -0.31,2.51 -0.82,4.96"
             id="path2780"
             style="fill:none;stroke-width:2;stroke-linecap:butt" />
          <path
             stroke="#08acd8"
             vector-effect="non-scaling-stroke"
             d="m 149.02,51.32 -34.25,0.93 a 0.71,0.7 75.1 0 0 -0.59,1.04 l 3.11,5.96"
             id="path2782"
             style="fill:none;stroke-width:2;stroke-linecap:butt" />
          <path
             stroke="#7dbbd0"
             vector-effect="non-scaling-stroke"
             d="m 117.29,59.25 q 1.06,8.94 -3.8,14.75 -4.66,5.58 -11.97,6.27 -7.56,0.72 -13.91,-5.32"
             id="path2784"
             style="fill:none;stroke-width:2;stroke-linecap:butt" />
          <path
             stroke="#099fd0"
             vector-effect="non-scaling-stroke"
             d="M 87.61,74.95 Q 85.48,70.8 82.16,67.96"
             id="path2786"
             style="fill:none;stroke-width:2;stroke-linecap:butt" />
          <path
             stroke="#77dcdd"
             vector-effect="non-scaling-stroke"
             d="M 152.96,59.25 H 117.29"
             id="path2788"
             style="fill:none;stroke-width:2;stroke-linecap:butt" />
          <path
             stroke="#0f97cc"
             vector-effect="non-scaling-stroke"
             d="m 70.71,92.25 -7.8,-4.3"
             id="path2790"
             style="fill:none;stroke-width:2;stroke-linecap:butt" />
          <path
             stroke="#e3d7d5"
             vector-effect="non-scaling-stroke"
             d="m 166.75,80.04 q 0.12,0.43 0,0.79 a 0.93,0.64 2.9 0 1 -0.76,0.47 q -3.5,0.29 -5.8,-1.74 -3.66,-3.22 -7.45,-7.85 a 1.04,1.03 65 0 0 -0.99,-0.37 q -3.68,0.64 -2.81,3.85 0.82,3.04 3.13,3.86 2.39,0.84 1.18,2.74"
             id="path2792"
             style="fill:none;stroke-width:2;stroke-linecap:butt" />
          <path
             stroke="#89a0c6"
             vector-effect="non-scaling-stroke"
             d="M 153.25,81.79 Q 145.04,73.74 136,82.34 a 1.28,1.28 0 0 1 -1.75,0.01 q -2.76,-2.59 -5.92,-3.66 -3.25,-1.09 -6.63,0.12 -7.41,2.64 -7.7,11.8 -0.04,1.23 -1.09,0.58 -5.19,-3.23 -11.61,-1.51 -11.15,3 -10.51,14.01 0.15,2.69 1.04,3.95 1.37,1.97 4.36,1.55 2.57,-0.37 2.06,-3.44 -1.51,-9.14 6.25,-9.37 2.54,-0.08 4.73,1.26 2,1.23 3.96,3.17 a 0.55,0.56 49.3 0 1 -0.07,0.85 q -4.33,3.12 -7.41,6.59"
             id="path2794"
             style="fill:none;stroke-width:2;stroke-linecap:butt" />
          <path
             stroke="#9182b9"
             vector-effect="non-scaling-stroke"
             d="m 105.71,108.25 q -4,4.43 -6.52,10.53 a 0.91,0.92 21.7 0 1 -1.18,0.51 q -2.43,-0.96 -4.63,-1.69 -2.47,-0.83 -3.83,-0.41 -2.08,0.64 -2.86,3.26 -0.68,2.29 1.61,2.95 4.25,1.22 8.66,3.83"
             id="path2796"
             style="fill:none;stroke-width:2;stroke-linecap:butt" />
          <path
             stroke="#ae7eb5"
             vector-effect="non-scaling-stroke"
             d="m 96.96,127.23 q -1.44,7.12 -0.21,13.9 a 0.8,0.8 0 0 1 -0.61,0.92 q -2.51,0.55 -4.89,1.39 -2.95,1.04 -3.01,1.07 -1.58,0.88 -1.78,2.99"
             id="path2798"
             style="fill:none;stroke-width:2;stroke-linecap:butt" />
          <path
             stroke="#f3c5bf"
             vector-effect="non-scaling-stroke"
             d="m 86.46,147.5 q -8.52,-0.01 -13.12,7.07"
             id="path2800"
             style="fill:none;stroke-width:2;stroke-linecap:butt" />
          <path
             stroke="#a2a1be"
             vector-effect="non-scaling-stroke"
             d="m 73.34,154.57 q -4.71,-5.61 -10.95,-6.6"
             id="path2802"
             style="fill:none;stroke-width:2;stroke-linecap:butt" />
          <path
             stroke="#7cd5d5"
             vector-effect="non-scaling-stroke"
             d="m 62.39,147.97 0.86,-25.68"
             id="path2804"
             style="fill:none;stroke-width:2;stroke-linecap:butt" />
          <path
             stroke="#84b3cc"
             vector-effect="non-scaling-stroke"
             d="M 63.25,122.29 Q 78.42,118.11 77,102.75 76.44,96.66 70.71,92.25"
             id="path2806"
             style="fill:none;stroke-width:2;stroke-linecap:butt" />
          <path
             stroke="#78cfd5"
             vector-effect="non-scaling-stroke"
             d="m 70.71,92.25 q 10.16,-7.11 16.9,-17.3"
             id="path2808"
             style="fill:none;stroke-width:2;stroke-linecap:butt" />
          <path
             stroke="#1d33ac"
             vector-effect="non-scaling-stroke"
             d="m 206.47,88.07 q -3.94,3.21 -8.04,3.93"
             id="path2810"
             style="fill:none;stroke-width:2;stroke-linecap:butt" />
          <path
             stroke="#778ac7"
             vector-effect="non-scaling-stroke"
             d="m 198.43,92 q -9.68,-6.94 -15.85,-16.75 a 0.4,0.39 51.6 0 0 -0.62,-0.08 q -6.21,6.22 -15.21,4.87"
             id="path2812"
             style="fill:none;stroke-width:2;stroke-linecap:butt" />
          <path
             stroke="#809ec7"
             vector-effect="non-scaling-stroke"
             d="M 166.75,80.04 Q 151.04,75.81 152.96,59.25"
             id="path2814"
             style="fill:none;stroke-width:2;stroke-linecap:butt" />
          <path
             stroke="#0b8fcf"
             vector-effect="non-scaling-stroke"
             d="m 152.96,59.25 3.79,-8.21"
             id="path2816"
             style="fill:none;stroke-width:2;stroke-linecap:butt" />
          <path
             stroke="#139dcc"
             vector-effect="non-scaling-stroke"
             d="m 63.25,122.29 -8.63,-0.85"
             id="path2818"
             style="fill:none;stroke-width:2;stroke-linecap:butt" />
          <path
             stroke="#6a349c"
             vector-effect="non-scaling-stroke"
             d="m 72.71,176 q -0.58,-0.58 -1.27,-2.44 -1.1,-2.93 -4.44,-2.6"
             id="path2820"
             style="fill:none;stroke-width:2;stroke-linecap:butt" />
          <path
             stroke="#a890af"
             vector-effect="non-scaling-stroke"
             d="m 67,170.96 q 2.52,-3.72 1.87,-7.64 -0.63,-3.86 -3.92,-6.02 -4.61,-3.03 -10.16,0.95"
             id="path2822"
             style="fill:none;stroke-width:2;stroke-linecap:butt" />
          <path
             stroke="#8d669a"
             vector-effect="non-scaling-stroke"
             d="m 54.79,158.25 q -1.76,-0.97 -2.79,-3.5 -0.58,-1.41 -2.54,-2.25"
             id="path2824"
             style="fill:none;stroke-width:2;stroke-linecap:butt" />
          <path
             stroke="#6a67bb"
             vector-effect="non-scaling-stroke"
             d="m 181.89,144.63 q 2.21,4.32 -1.06,5.78 -1.91,0.84 -4.7,0.15 -2.32,-0.58 -4.87,-1.74 a 0.65,0.64 21.7 0 0 -0.88,0.37 q -4.21,11.79 -12.99,19 a 0.48,0.48 0 0 0 -0.06,0.69 q 4.67,5.2 11.28,2.15 4.6,-2.13 3.63,-7.28 -0.5,-2.64 0.93,-4.15 1.39,-1.48 3.51,-0.94 2.38,0.6 2.82,3.34 1.78,11.05 -6.8,15.64 -3.64,1.94 -7.79,2.08 -4.15,0.13 -8.16,-1.47 a 0.55,0.54 11.6 0 0 -0.75,0.49 q -0.18,6.22 -5,9.97"
             id="path2826"
             style="fill:none;stroke-width:2;stroke-linecap:butt" />
          <path
             stroke="#975ca3"
             vector-effect="non-scaling-stroke"
             d="m 151,188.71 q -9.29,4.13 -15.88,-3.77"
             id="path2828"
             style="fill:none;stroke-width:2;stroke-linecap:butt" />
          <path
             stroke="#521599"
             vector-effect="non-scaling-stroke"
             d="m 135.12,184.94 q -0.67,-1.68 1.08,-2.15 a 0.97,0.95 2.3 0 0 0.65,-0.59 q 0.74,-2.09 2.4,-3.49"
             id="path2830"
             style="fill:none;stroke-width:2;stroke-linecap:butt" />
          <path
             stroke="#9653ac"
             vector-effect="non-scaling-stroke"
             d="m 139.25,178.71 q 2.28,2.94 5.34,3.91 1.91,0.61 2.84,-1.17 1.52,-2.9 1.73,-6.15 a 1.17,1.02 27 0 0 -0.34,-0.84 q -2.46,-2.51 -3,-5.96 a 0.41,0.4 75.8 0 0 -0.53,-0.33 q -8.92,3.21 -17.95,0.91"
             id="path2832"
             style="fill:none;stroke-width:2;stroke-linecap:butt" />
          <path
             stroke="#521599"
             vector-effect="non-scaling-stroke"
             d="m 127.34,169.08 q -0.93,-4.3 0.41,-8.29"
             id="path2834"
             style="fill:none;stroke-width:2;stroke-linecap:butt" />
          <path
             stroke="#976da9"
             vector-effect="non-scaling-stroke"
             d="m 127.75,160.79 5.87,0.72"
             id="path2836"
             style="fill:none;stroke-width:2;stroke-linecap:butt" />
          <path
             stroke="#8270ba"
             vector-effect="non-scaling-stroke"
             d="m 133.62,161.51 q 13.92,0.39 21.07,-10.32 6.03,-9.04 4.81,-19.94 -1.21,-10.91 -9.06,-17.69 -12.31,-10.61 -27.23,-3.06"
             id="path2838"
             style="fill:none;stroke-width:2;stroke-linecap:butt" />
          <path
             stroke="#976da9"
             vector-effect="non-scaling-stroke"
             d="m 123.21,110.5 q -7.42,4.16 -11.21,11.79"
             id="path2840"
             style="fill:none;stroke-width:2;stroke-linecap:butt" />
          <path
             stroke="#521599"
             vector-effect="non-scaling-stroke"
             d="m 112,122.29 q -1.67,-0.27 -3.22,0.23 a 1.83,1.22 34.2 0 1 -0.93,-0.01 q -0.84,-0.22 -1.19,0.52 -0.27,0.56 -0.55,0.77 -1.63,1.27 -3.22,2.61 -1.45,1.22 -2.74,1.35 -1.71,0.18 -3.19,-0.53"
             id="path2842"
             style="fill:none;stroke-width:2;stroke-linecap:butt" />
          <path
             stroke="#b34fa7"
             vector-effect="non-scaling-stroke"
             d="m 127.34,169.08 q -1.62,-0.21 -2.91,-0.74 -2.09,-0.86 -0.97,0.76 a 1.66,1.09 38.6 0 1 0.29,0.89 q -0.09,2.15 -2.15,3.7 a 1.81,1.81 0 0 0 -0.71,1.64 q 0.38,3.63 1.93,6.43 a 1.35,1.28 83.7 0 0 0.72,0.61 q 2.47,0.81 4.21,-1.12 1.53,-1.69 2.8,-2.88 1.71,-1.6 3.46,-1.79 2.99,-0.34 5.24,2.13"
             id="path2844"
             style="fill:none;stroke-width:2;stroke-linecap:butt" />
          <path
             stroke="#b4589f"
             vector-effect="non-scaling-stroke"
             d="m 135.12,184.94 q -4.27,3.74 -6.18,4.5 -6.35,2.51 -10.87,-1.41 -1.86,-1.6 -2.97,-4.08 -1.09,-2.39 -1.33,-4.97 a 0.57,0.57 0 0 0 -0.75,-0.49 q -4.73,1.63 -9.44,1.04 -4.97,-0.64 -8.49,-3.46 -6.03,-4.83 -4.03,-13.76 0.76,-3.39 4.19,-3.77 a 1.31,1.38 59.9 0 1 0.92,0.22 q 2.31,1.59 1.83,4.74 -0.81,5.33 2.91,7.7 2.59,1.66 6.06,1.15 3.29,-0.49 5.93,-2.66 a 0.95,0.96 41.9 0 0 -0.08,-1.54 q -10.47,-6.83 -14,-18.62 a 0.53,0.52 75.7 0 0 -0.61,-0.37 q -2.44,0.52 -4.84,1.2 -2.82,0.8 -3.94,0.59 -2.39,-0.45 -2.97,-3.45"
             id="path2846"
             style="fill:none;stroke-width:2;stroke-linecap:butt" />
          <path
             stroke="#9759a2"
             vector-effect="non-scaling-stroke"
             d="m 154.25,198.04 q -2.48,4.48 -1.31,9.95"
             id="path2848"
             style="fill:none;stroke-width:2;stroke-linecap:butt" />
          <path
             stroke="#bb589d"
             vector-effect="non-scaling-stroke"
             d="m 152.94,207.99 q -17.3,0.83 -34.63,0.51 a 1.03,1.03 0 0 1 -1.01,-0.99 q -0.52,-11.48 -8.56,-16.29 -5,-2.99 -10.53,-2.34 -5.78,0.68 -10.23,5.27 A 0.43,0.43 0 0 1 87.32,194.1 Q 81.04,185.28 73.19,178.81 71.45,177.38 72.71,176"
             id="path2850"
             style="fill:none;stroke-width:2;stroke-linecap:butt" />
          <path
             stroke="#a87aa8"
             vector-effect="non-scaling-stroke"
             d="m 72.71,176 q 7.36,-10.57 0.63,-21.43"
             id="path2852"
             style="fill:none;stroke-width:2;stroke-linecap:butt" />
          <path
             stroke="#816cba"
             vector-effect="non-scaling-stroke"
             d="m 198.43,92 q -9.67,10.23 -3.93,21.54 1.99,3.91 5.07,6 3.37,2.29 7.68,2.75"
             id="path2854"
             style="fill:none;stroke-width:2;stroke-linecap:butt" />
          <path
             stroke="#75b5d4"
             vector-effect="non-scaling-stroke"
             d="m 207.25,122.29 0.25,25.67"
             id="path2856"
             style="fill:none;stroke-width:2;stroke-linecap:butt" />
          <path
             stroke="#816cba"
             vector-effect="non-scaling-stroke"
             d="m 207.5,147.96 q -9.77,1.48 -13.95,10.5"
             id="path2858"
             style="fill:none;stroke-width:2;stroke-linecap:butt" />
          <path
             stroke="#bdbcd7"
             vector-effect="non-scaling-stroke"
             d="m 193.55,158.46 q 0.25,-4.67 3.54,-8.17 a 1.06,0.92 65.7 0 0 0.25,-0.84 q -0.17,-1.31 0.47,-3.39 0.88,-2.85 1.78,-5.7 1.1,-3.48 0.9,-5.86 -0.37,-4.49 -2.96,-8.34 a 1.47,1.31 79.2 0 0 -0.76,-0.58 q -2.27,-0.67 -5.58,0.61 -4.05,1.55 -5.83,3.84 a 0.31,0.3 24.4 0 0 0.19,0.48 q 1.83,0.37 0.95,1.78"
             id="path2860"
             style="fill:none;stroke-width:2;stroke-linecap:butt" />
          <path
             stroke="#816cba"
             vector-effect="non-scaling-stroke"
             d="m 186.5,132.29 q -2.91,-1.3 -4.88,0.27 -1.71,1.35 -1.21,3.49 0.49,2.18 2.84,3.24"
             id="path2862"
             style="fill:none;stroke-width:2;stroke-linecap:butt" />
          <path
             stroke="#bdbcd7"
             vector-effect="non-scaling-stroke"
             d="m 183.25,139.29 q -0.23,1.9 -1.42,3.34 a 1.06,0.91 61.3 0 0 -0.18,0.85 l 0.24,1.15"
             id="path2864"
             style="fill:none;stroke-width:2;stroke-linecap:butt" />
          <path
             stroke="#886eb9"
             vector-effect="non-scaling-stroke"
             d="m 181.89,144.63 -8.92,-2.61 a 0.77,0.7 12 0 1 -0.56,-0.78 q 0.89,-7.19 -0.42,-13.94 a 1.3,1.42 75.8 0 1 1.01,-1.53 l 8.7,-2.59 q 1.98,-0.59 1.21,-2.68 -1.96,-5.36 -7.55,-3.27 -2.16,0.81 -4.41,2.09 a 0.46,0.47 62.9 0 1 -0.66,-0.21 q -4.84,-10.95 -13.93,-17.57"
             id="path2866"
             style="fill:none;stroke-width:2;stroke-linecap:butt" />
          <path
             stroke="#808cc6"
             vector-effect="non-scaling-stroke"
             d="m 156.36,101.54 q 3.04,-4.29 7.65,-5.1 3,-0.54 5.28,0.84 2.69,1.63 3.13,4.98 0.04,0.35 -0.27,2.95 -0.21,1.79 0.82,3.01 1.36,1.61 3.6,1.18 2.54,-0.49 3.12,-3.46 1.53,-7.93 -3.22,-12.63 -3.72,-3.69 -9.35,-4.33 -5.49,-0.63 -10.64,2.45 -0.41,0.25 -0.4,-0.25 0.08,-5.16 -2.83,-9.39"
             id="path2868"
             style="fill:none;stroke-width:2;stroke-linecap:butt" />
          <path
             stroke="#2d37aa"
             vector-effect="non-scaling-stroke"
             d="m 156.36,101.54 -4.49,2.62 a 0.71,1.02 49.3 0 1 -0.89,0.09 l -5.23,-2.96"
             id="path2870"
             style="fill:none;stroke-width:2;stroke-linecap:butt" />
          <path
             stroke="#7f8dc3"
             vector-effect="non-scaling-stroke"
             d="m 145.75,101.29 q 0.42,-2.12 2.44,-4.45 a 2.52,2.57 65 0 0 0.62,-1.66 q 0.01,-3.47 -0.66,-6.11 -1.38,-5.36 -5.55,-3.15 -0.88,0.47 -1.88,1.54 -0.84,0.88 -1.67,1.77 -1.66,1.78 -2.81,2.25 -2.88,1.17 -5.28,-1.69 -1.32,-1.58 -2.85,-2.92 -1.67,-1.47 -3.11,-1.34 -2.07,0.19 -2.81,2.91 -1.2,4.37 -0.99,7.07 a 1.43,1.12 25.5 0 0 0.42,0.84 q 2.11,2.08 2.88,4.94"
             id="path2872"
             style="fill:none;stroke-width:2;stroke-linecap:butt" />
          <path
             stroke="#2d37aa"
             vector-effect="non-scaling-stroke"
             d="m 124.5,101.29 q -7.67,2.85 -13.17,8.85 a 1.02,1.12 24.3 0 1 -0.83,0.36 q -2.79,-0.12 -4.79,-2.25"
             id="path2874"
             style="fill:none;stroke-width:2;stroke-linecap:butt" />
          <path
             stroke="#318bbe"
             vector-effect="non-scaling-stroke"
             d="m 62.39,147.97 -7.58,0.79"
             id="path2876"
             style="fill:none;stroke-width:2;stroke-linecap:butt" />
          <path
             stroke="#1b5eb9"
             vector-effect="non-scaling-stroke"
             d="m 215,121.29 -7.75,1"
             id="path2878"
             style="fill:none;stroke-width:2;stroke-linecap:butt" />
          <path
             stroke="#dda0a2"
             vector-effect="non-scaling-stroke"
             d="m 54.79,158.25 q -8.19,11.74 5.33,16.1"
             id="path2880"
             style="fill:none;stroke-width:2;stroke-linecap:butt" />
          <path
             stroke="#a0448f"
             vector-effect="non-scaling-stroke"
             d="m 60.12,174.35 q 1.07,3.68 -0.62,7.61"
             id="path2882"
             style="fill:none;stroke-width:2;stroke-linecap:butt" />
          <path
             stroke="#591296"
             vector-effect="non-scaling-stroke"
             d="m 152.94,207.99 q 2.63,1.98 1.43,5.47 a 0.8,0.79 7.3 0 1 -0.69,0.53 l -6.18,0.48 a 0.91,0.59 1.8 0 0 -0.76,0.46 l -0.28,0.98 a 0.35,0.46 6.4 0 1 -0.3,0.31 q -0.74,0.11 0.09,0.49"
             id="path2884"
             style="fill:none;stroke-width:2;stroke-linecap:butt" />
          <path
             stroke="#bb6ea4"
             vector-effect="non-scaling-stroke"
             d="m 67,170.96 q -2.58,2.84 -6.88,3.39"
             id="path2886"
             style="fill:none;stroke-width:2;stroke-linecap:butt" />
          <path
             stroke="#f8d9ca"
             vector-effect="non-scaling-stroke"
             d="m 134.25,119.46 q -8.79,1.44 -12.15,8.11 -3.22,6.4 -0.1,12.89 3.63,7.57 14,7.58"
             id="path2888"
             style="fill:none;stroke-width:2;stroke-linecap:butt" />
          <path
             stroke="#b469a4"
             vector-effect="non-scaling-stroke"
             d="m 127.75,160.79 q -11.94,-3.84 -16.44,-15.1 -4.64,-11.64 0.69,-23.4"
             id="path2890"
             style="fill:none;stroke-width:2;stroke-linecap:butt" />
          <path
             stroke="#e4c4c5"
             vector-effect="non-scaling-stroke"
             d="m 133.62,161.51 2.56,-6.27 a 0.77,0.59 11.9 0 1 0.75,-0.36 q 2.18,0.19 0.41,-1.77 -0.2,-0.22 -0.35,-0.86 L 136,148.04"
             id="path2892"
             style="fill:none;stroke-width:2;stroke-linecap:butt" />
          <path
             stroke="#e4dddb"
             vector-effect="non-scaling-stroke"
             d="m 136,148.04 q 7.55,-1.02 10.69,-7.35 2.13,-4.31 1.49,-8.99 -0.63,-4.67 -3.58,-7.91 -3.85,-4.21 -10.35,-4.33"
             id="path2894"
             style="fill:none;stroke-width:2;stroke-linecap:butt" />
          <path
             stroke="#e4c4c5"
             vector-effect="non-scaling-stroke"
             d="m 134.25,119.46 q 1.22,-2.91 0.4,-5.82 -0.06,-0.22 -0.46,-2.34 -0.39,-2.08 -2.94,-2.05 -1.52,0.02 -6.2,1.87 -0.62,0.25 -1.01,0.13 -0.54,-0.17 -0.83,-0.75"
             id="path2896"
             style="fill:none;stroke-width:2;stroke-linecap:butt" />
          <path
             stroke="#6365bc"
             vector-effect="non-scaling-stroke"
             d="m 193.55,158.46 q -2.87,11.25 4.7,19.25"
             id="path2898"
             style="fill:none;stroke-width:2;stroke-linecap:butt" />
          <path
             stroke="#6a64ba"
             vector-effect="non-scaling-stroke"
             d="m 198.25,177.71 q -8.98,6.99 -15.71,16.14 a 0.4,0.41 41.6 0 1 -0.62,0.04 q -5.21,-5.47 -12.67,-5.14 -10.03,0.45 -15,9.29"
             id="path2900"
             style="fill:none;stroke-width:2;stroke-linecap:butt" />
          <path
             stroke="#cca9c1"
             vector-effect="non-scaling-stroke"
             d="M 154.25,198.04 153.56,198 a 0.52,0.52 0 0 1 -0.48,-0.55 q 0.15,-2.38 1.54,-4.97 a 0.66,0.53 36.6 0 0 -0.19,-0.72 L 151,188.71"
             id="path2902"
             style="fill:none;stroke-width:2;stroke-linecap:butt" />
          <path
             stroke="#6365bc"
             vector-effect="non-scaling-stroke"
             d="m 183.25,139.29 q 7.66,-0.81 3.25,-7"
             id="path2904"
             style="fill:none;stroke-width:2;stroke-linecap:butt" />
          <path
             stroke="#876fb6"
             vector-effect="non-scaling-stroke"
             d="m 145.75,101.29 q -10.64,-3.93 -21.25,0"
             id="path2906"
             style="fill:none;stroke-width:2;stroke-linecap:butt" />
          <path
             stroke="#2e149d"
             vector-effect="non-scaling-stroke"
             d="m 181.95,216.28 q 2.71,-5.66 3.79,-11.78 0.61,-3.45 3.32,-7.44 5.08,-7.46 15.08,-13.7 a 1.55,1.56 51.2 0 0 0.27,-2.43 q -2.14,-2.08 -6.16,-3.22"
             id="path2908"
             style="fill:none;stroke-width:2;stroke-linecap:butt" />
          <path
             stroke="#1b5eb9"
             vector-effect="non-scaling-stroke"
             d="m 214.8,148.8 -7.3,-0.84"
             id="path2910"
             style="fill:none;stroke-width:2;stroke-linecap:butt" />
          <path
             stroke="#60c4e3"
             vector-effect="non-scaling-stroke"
             d="m 109.54,63.6 a 9,9 0 0 0 -9,-9 9,9 0 0 0 -9,9 9,9 0 0 0 9,9 9,9 0 0 0 9,-9"
             id="path2912"
             style="fill:none;stroke-width:2;stroke-linecap:butt" />
          <path
             stroke="#4ca5da"
             vector-effect="non-scaling-stroke"
             d="m 174.9978,70.5997 a 9.11,8.81 50.8 0 0 1.0695,-12.6279 9.11,8.81 50.8 0 0 -12.5851,-1.4915 9.11,8.81 50.8 0 0 -1.0695,12.6279 9.11,8.81 50.8 0 0 12.5851,1.4915"
             id="path2914"
             style="fill:none;stroke-width:2;stroke-linecap:butt" />
          <path
             stroke="#9f89b9"
             vector-effect="non-scaling-stroke"
             d="m 89.45,135.45 a 3.56,3.56 0 0 0 -3.56,-3.56 3.56,3.56 0 0 0 -3.56,3.56 3.56,3.56 0 0 0 3.56,3.56 3.56,3.56 0 0 0 3.56,-3.56"
             id="path2916"
             style="fill:none;stroke-width:2;stroke-linecap:butt" />
          <path
             stroke="#67bcdf"
             vector-effect="non-scaling-stroke"
             d="m 64.0055,113.7969 a 9.05,8.69 68.1 0 0 4.6874,-11.6382 9.05,8.69 68.1 0 0 -11.4384,-5.1556 9.05,8.69 68.1 0 0 -4.6874,11.6382 9.05,8.69 68.1 0 0 11.4384,5.1556"
             id="path2918"
             style="fill:none;stroke-width:2;stroke-linecap:butt" />
          <path
             stroke="#4185cb"
             vector-effect="non-scaling-stroke"
             d="m 208.0851,114.2459 a 8.55,8.91 5.7 0 0 9.3926,-8.0167 8.55,8.91 5.7 0 0 -7.6228,-9.7151 8.55,8.91 5.7 0 0 -9.3926,8.0167 8.55,8.91 5.7 0 0 7.6228,9.7151"
             id="path2920"
             style="fill:none;stroke-width:2;stroke-linecap:butt" />
          <path
             stroke="#3a84cb"
             vector-effect="non-scaling-stroke"
             d="m 208.79,174.0015 a 8.64,8.94 2.5 0 0 9.0218,-8.5546 8.64,8.94 2.5 0 0 -8.2418,-9.3084 8.64,8.94 2.5 0 0 -9.0218,8.5546 8.64,8.94 2.5 0 0 8.2418,9.3084"
             id="path2922"
             style="fill:none;stroke-width:2;stroke-linecap:butt" />
          <path
             stroke="#bb649d"
             vector-effect="non-scaling-stroke"
             d="m 109.19,205.6 a 8.97,8.97 0 0 0 -8.97,-8.97 8.97,8.97 0 0 0 -8.97,8.97 8.97,8.97 0 0 0 8.97,8.97 8.97,8.97 0 0 0 8.97,-8.97"
             id="path2924"
             style="fill:none;stroke-width:2;stroke-linecap:butt" />
          <path
             stroke="#7574c0"
             vector-effect="non-scaling-stroke"
             d="m 178.12,205.42 a 8.88,8.88 0 0 0 -8.88,-8.88 8.88,8.88 0 0 0 -8.88,8.88 8.88,8.88 0 0 0 8.88,8.88 8.88,8.88 0 0 0 8.88,-8.88"
             id="path2926"
             style="fill:none;stroke-width:2;stroke-linecap:butt" />
          <path
             fill="#0e8bcb"
             d="m 149.02,51.32 -34.25,0.93 a 0.71,0.7 75.1 0 0 -0.59,1.04 l 3.11,5.96 q 1.06,8.94 -3.8,14.75 -4.66,5.58 -11.97,6.27 -7.56,0.72 -13.91,-5.32 -2.13,-4.15 -5.45,-6.99 0.51,-2.45 0.82,-4.96 0.41,-3.23 1.06,-4.9 2.37,-6.1 7.7,-9.36 4.97,-3.04 10.48,-2.47 5.53,0.56 9.98,4.59 a 1.23,1.21 64.4 0 0 0.86,0.31 q 17.96,-0.54 35.96,0.15 z M 109.54,63.6 a 9,9 0 0 0 -9,-9 9,9 0 0 0 -9,9 9,9 0 0 0 9,9 9,9 0 0 0 9,-9 z"
             id="path2932" />
          <path
             fill="#1350b9"
             d="m 206.47,88.07 q -3.94,3.21 -8.04,3.93 -9.68,-6.94 -15.85,-16.75 a 0.4,0.39 51.6 0 0 -0.62,-0.08 q -6.21,6.22 -15.21,4.87 -15.71,-4.23 -13.79,-20.79 l 3.79,-8.21 q 5.08,-4.52 11.24,-4.73 5.77,-0.19 10.88,3.44 7.7,5.47 8.13,16.25 0.04,1.13 1.2,3.37 0.75,1.45 1.95,2.97 7.04,8.95 16.32,15.73 z M 174.9978,70.5997 a 9.11,8.81 50.8 0 0 1.0695,-12.6279 9.11,8.81 50.8 0 0 -12.5851,-1.4915 9.11,8.81 50.8 0 0 -1.0695,12.6279 9.11,8.81 50.8 0 0 12.5851,1.4915 z"
             id="path2934" />
          <path
             fill="#02cde5"
             d="m 156.75,51.04 -3.79,8.21 h -35.67 l -3.11,-5.96 a 0.71,0.7 75.1 0 1 0.59,-1.04 l 34.25,-0.93 q 3.85,-0.81 7.73,-0.28 z"
             id="path2936" />
          <circle
             fill="#b2fdfb"
             cx="100.54"
             cy="63.599998"
             r="9"
             id="circle2938" />
          <ellipse
             fill="#85fafa"
             cx="0"
             cy="0"
             transform="rotate(50.8,17.712535,209.97931)"
             rx="9.1099997"
             ry="8.8100004"
             id="ellipse2940" />
          <path
             fill="#ecebd5"
             d="m 152.96,59.25 q -1.92,16.56 13.79,20.79 0.12,0.43 0,0.79 a 0.93,0.64 2.9 0 1 -0.76,0.47 q -3.5,0.29 -5.8,-1.74 -3.66,-3.22 -7.45,-7.85 a 1.04,1.03 65 0 0 -0.99,-0.37 q -3.68,0.64 -2.81,3.85 0.82,3.04 3.13,3.86 2.39,0.84 1.18,2.74 -8.21,-8.05 -17.25,0.55 a 1.28,1.28 44.7 0 1 -1.75,0.01 q -2.76,-2.59 -5.92,-3.66 -3.25,-1.09 -6.63,0.12 -7.41,2.64 -7.7,11.8 -0.04,1.23 -1.09,0.58 -5.19,-3.23 -11.61,-1.51 -11.15,3 -10.51,14.01 0.15,2.69 1.04,3.95 1.37,1.97 4.36,1.55 2.57,-0.37 2.06,-3.44 -1.51,-9.14 6.25,-9.37 2.54,-0.08 4.73,1.26 2,1.23 3.96,3.17 a 0.56,0.55 -40.7 0 1 -0.07,0.85 q -4.33,3.12 -7.41,6.59 -4,4.43 -6.52,10.53 a 0.92,0.91 -68.3 0 1 -1.18,0.51 q -2.43,-0.96 -4.63,-1.69 -2.47,-0.83 -3.83,-0.41 -2.08,0.64 -2.86,3.26 -0.68,2.29 1.61,2.95 4.25,1.22 8.66,3.83 -1.44,7.12 -0.21,13.9 a 0.8,0.8 78.6 0 1 -0.61,0.92 q -2.51,0.55 -4.89,1.39 -2.95,1.04 -3.01,1.07 -1.58,0.88 -1.78,2.99 -8.52,-0.01 -13.12,7.07 -4.71,-5.61 -10.95,-6.6 l 0.86,-25.68 q 15.17,-4.18 13.75,-19.54 -0.56,-6.09 -6.29,-10.5 10.16,-7.11 16.9,-17.3 6.35,6.04 13.91,5.32 7.31,-0.69 11.97,-6.27 4.86,-5.81 3.8,-14.75 z m -63.51,76.2 a 3.56,3.56 0 0 0 -3.56,-3.56 3.56,3.56 0 0 0 -3.56,3.56 3.56,3.56 0 0 0 3.56,3.56 3.56,3.56 0 0 0 3.56,-3.56 z"
             id="path2942" />
          <path
             fill="#03b3d5"
             d="m 82.16,67.96 q 3.32,2.84 5.45,6.99 -6.74,10.19 -16.9,17.3 l -7.8,-4.3 Q 74.6,79.66 82.16,67.96 Z"
             id="path2944" />
          <path
             fill="#dac3d5"
             d="m 166.75,80.04 q 9,1.35 15.21,-4.87 a 0.4,0.39 51.6 0 1 0.62,0.08 q 6.17,9.81 15.85,16.75 -9.67,10.23 -3.93,21.54 1.99,3.91 5.07,6 3.37,2.29 7.68,2.75 l 0.25,25.67 q -9.77,1.48 -13.95,10.5 0.25,-4.67 3.54,-8.17 a 1.06,0.92 65.7 0 0 0.25,-0.84 q -0.17,-1.31 0.47,-3.39 0.88,-2.85 1.78,-5.7 1.1,-3.48 0.9,-5.86 -0.37,-4.49 -2.96,-8.34 a 1.47,1.31 79.2 0 0 -0.76,-0.58 q -2.27,-0.67 -5.58,0.61 -4.05,1.55 -5.83,3.84 a 0.31,0.3 24.4 0 0 0.19,0.48 q 1.83,0.37 0.95,1.78 -2.91,-1.3 -4.88,0.27 -1.71,1.35 -1.21,3.49 0.49,2.18 2.84,3.24 -0.23,1.9 -1.42,3.34 a 1.06,0.91 61.3 0 0 -0.18,0.85 l 0.24,1.15 -8.92,-2.61 a 0.77,0.7 12 0 1 -0.56,-0.78 q 0.89,-7.19 -0.42,-13.94 a 1.42,1.3 -14.2 0 1 1.01,-1.53 l 8.7,-2.59 q 1.98,-0.59 1.21,-2.68 -1.96,-5.36 -7.55,-3.27 -2.16,0.81 -4.41,2.09 a 0.47,0.46 -27.1 0 1 -0.66,-0.21 q -4.84,-10.95 -13.93,-17.57 3.04,-4.29 7.65,-5.1 3,-0.54 5.28,0.84 2.69,1.63 3.13,4.98 0.04,0.35 -0.27,2.95 -0.21,1.79 0.82,3.01 1.36,1.61 3.6,1.18 2.54,-0.49 3.12,-3.46 1.53,-7.93 -3.22,-12.63 -3.72,-3.69 -9.35,-4.33 -5.49,-0.63 -10.64,2.45 -0.41,0.25 -0.4,-0.25 0.08,-5.16 -2.83,-9.39 1.21,-1.9 -1.18,-2.74 -2.31,-0.82 -3.13,-3.86 -0.87,-3.21 2.81,-3.85 a 1.04,1.03 65 0 1 0.99,0.37 q 3.79,4.63 7.45,7.85 2.3,2.03 5.8,1.74 a 0.93,0.64 2.9 0 0 0.76,-0.47 q 0.12,-0.36 0,-0.79 z"
             id="path2946" />
          <path
             fill="#2555b7"
             d="m 153.25,81.79 q 2.91,4.23 2.83,9.39 -0.01,0.5 0.4,0.25 5.15,-3.08 10.64,-2.45 5.63,0.64 9.35,4.33 4.75,4.7 3.22,12.63 -0.58,2.97 -3.12,3.46 -2.24,0.43 -3.6,-1.18 -1.03,-1.22 -0.82,-3.01 0.31,-2.6 0.27,-2.95 -0.44,-3.35 -3.13,-4.98 -2.28,-1.38 -5.28,-0.84 -4.61,0.81 -7.65,5.1 l -4.49,2.62 a 1.02,0.71 -40.7 0 1 -0.89,0.09 l -5.23,-2.96 q 0.42,-2.12 2.44,-4.45 a 2.57,2.52 -25 0 0 0.62,-1.66 q 0.01,-3.47 -0.66,-6.11 -1.38,-5.36 -5.55,-3.15 -0.88,0.47 -1.88,1.54 -0.84,0.88 -1.67,1.77 -1.66,1.78 -2.81,2.25 -2.88,1.17 -5.28,-1.69 -1.32,-1.58 -2.85,-2.92 -1.67,-1.47 -3.11,-1.34 -2.07,0.19 -2.81,2.91 -1.2,4.37 -0.99,7.07 a 1.43,1.12 25.5 0 0 0.42,0.84 q 2.11,2.08 2.88,4.94 -7.67,2.85 -13.17,8.85 a 1.12,1.02 -65.7 0 1 -0.83,0.36 q -2.79,-0.12 -4.79,-2.25 3.08,-3.47 7.41,-6.59 a 0.56,0.55 -40.7 0 0 0.07,-0.85 q -1.96,-1.94 -3.96,-3.17 -2.19,-1.34 -4.73,-1.26 -7.76,0.23 -6.25,9.37 0.51,3.07 -2.06,3.44 -2.99,0.42 -4.36,-1.55 -0.89,-1.26 -1.04,-3.95 -0.64,-11.01 10.51,-14.01 6.42,-1.72 11.61,1.51 1.05,0.65 1.09,-0.58 0.29,-9.16 7.7,-11.8 3.38,-1.21 6.63,-0.12 3.16,1.07 5.92,3.66 A 1.28,1.28 44.7 0 0 136,82.34 q 9.04,-8.6 17.25,-0.55 z"
             id="path2948" />
          <path
             fill="#d8c5ce"
             d="m 145.75,101.29 q -10.64,-3.93 -21.25,0 -0.77,-2.86 -2.88,-4.94 a 1.43,1.12 25.5 0 1 -0.42,-0.84 q -0.21,-2.7 0.99,-7.07 0.74,-2.72 2.81,-2.91 1.44,-0.13 3.11,1.34 1.53,1.34 2.85,2.92 2.4,2.86 5.28,1.69 1.15,-0.47 2.81,-2.25 0.83,-0.89 1.67,-1.77 1,-1.07 1.88,-1.54 4.17,-2.21 5.55,3.15 0.67,2.64 0.66,6.11 a 2.57,2.52 -25 0 1 -0.62,1.66 q -2.02,2.33 -2.44,4.45 z"
             id="path2950" />
          <path
             fill="#1b7ac3"
             d="m 62.91,87.95 7.8,4.3 q 5.73,4.41 6.29,10.5 1.42,15.36 -13.75,19.54 l -8.63,-0.85 q -12.41,-6.74 -10.33,-18.88 1.15,-6.71 5.98,-10.6 5.22,-4.2 12.64,-4.01 z m 1.0955,25.8469 a 9.05,8.69 68.1 0 0 4.6874,-11.6382 9.05,8.69 68.1 0 0 -11.4384,-5.1556 9.05,8.69 68.1 0 0 -4.6874,11.6382 9.05,8.69 68.1 0 0 11.4384,5.1556 z"
             id="path2952" />
          <path
             fill="#27159f"
             d="m 206.47,88.07 q 10.59,-0.25 15.69,7.04 4.46,6.37 2.82,13.95 -1.71,7.9 -9.98,12.23 l -7.75,1 q -4.31,-0.46 -7.68,-2.75 -3.08,-2.09 -5.07,-6 -5.74,-11.31 3.93,-21.54 4.1,-0.72 8.04,-3.93 z m 1.6151,26.1759 a 8.91,8.55 95.7 0 0 9.3926,-8.0167 8.91,8.55 95.7 0 0 -7.6228,-9.7151 8.91,8.55 95.7 0 0 -9.3926,8.0167 8.91,8.55 95.7 0 0 7.6228,9.7151 z"
             id="path2954" />
          <ellipse
             fill="#b2fdfb"
             cx="0"
             cy="0"
             transform="rotate(68.1,-47.669079,97.559343)"
             rx="9.0500002"
             ry="8.6899996"
             id="ellipse2956" />
          <ellipse
             fill="#5bf5f7"
             cx="0"
             cy="0"
             transform="rotate(95.7,56.792345,147.2652)"
             rx="8.9099998"
             ry="8.5500002"
             id="ellipse2958" />
          <path
             fill="#35199d"
             d="m 145.75,101.29 5.23,2.96 a 1.02,0.71 -40.7 0 0 0.89,-0.09 l 4.49,-2.62 q 9.09,6.62 13.93,17.57 a 0.47,0.46 -27.1 0 0 0.66,0.21 q 2.25,-1.28 4.41,-2.09 5.59,-2.09 7.55,3.27 0.77,2.09 -1.21,2.68 l -8.7,2.59 a 1.42,1.3 -14.2 0 0 -1.01,1.53 q 1.31,6.75 0.42,13.94 a 0.77,0.7 12 0 0 0.56,0.78 l 8.92,2.61 q 2.21,4.32 -1.06,5.78 -1.91,0.84 -4.7,0.15 -2.32,-0.58 -4.87,-1.74 a 0.65,0.64 21.7 0 0 -0.88,0.37 q -4.21,11.79 -12.99,19 a 0.48,0.48 -40.5 0 0 -0.06,0.69 q 4.67,5.2 11.28,2.15 4.6,-2.13 3.63,-7.28 -0.5,-2.64 0.93,-4.15 1.39,-1.48 3.51,-0.94 2.38,0.6 2.82,3.34 1.78,11.05 -6.8,15.64 -3.64,1.94 -7.79,2.08 -4.15,0.13 -8.16,-1.47 a 0.55,0.54 11.6 0 0 -0.75,0.49 q -0.18,6.22 -5,9.97 -9.29,4.13 -15.88,-3.77 -0.67,-1.68 1.08,-2.15 a 0.97,0.95 2.3 0 0 0.65,-0.59 q 0.74,-2.09 2.4,-3.49 2.28,2.94 5.34,3.91 1.91,0.61 2.84,-1.17 1.52,-2.9 1.73,-6.15 a 1.17,1.02 27 0 0 -0.34,-0.84 q -2.46,-2.51 -3,-5.96 a 0.41,0.4 75.8 0 0 -0.53,-0.33 q -8.92,3.21 -17.95,0.91 -0.93,-4.3 0.41,-8.29 l 5.87,0.72 q 13.92,0.39 21.07,-10.32 6.03,-9.04 4.81,-19.94 -1.21,-10.91 -9.06,-17.69 -12.31,-10.61 -27.23,-3.06 -7.42,4.16 -11.21,11.79 -1.67,-0.27 -3.22,0.23 a 1.83,1.22 34.2 0 1 -0.93,-0.01 q -0.84,-0.22 -1.19,0.52 -0.27,0.56 -0.55,0.77 -1.63,1.27 -3.22,2.61 -1.45,1.22 -2.74,1.35 -1.71,0.18 -3.19,-0.53 -4.41,-2.61 -8.66,-3.83 -2.29,-0.66 -1.61,-2.95 0.78,-2.62 2.86,-3.26 1.36,-0.42 3.83,0.41 2.2,0.73 4.63,1.69 a 0.92,0.91 -68.3 0 0 1.18,-0.51 q 2.52,-6.1 6.52,-10.53 2,2.13 4.79,2.25 a 1.12,1.02 -65.7 0 0 0.83,-0.36 q 5.5,-6 13.17,-8.85 10.61,-3.93 21.25,0 z"
             id="path2960" />
          <path
             fill="#cfc7d6"
             d="m 133.62,161.51 2.56,-6.27 a 0.77,0.59 11.9 0 1 0.75,-0.36 q 2.18,0.19 0.41,-1.77 -0.2,-0.22 -0.35,-0.86 L 136,148.04 q 7.55,-1.02 10.69,-7.35 2.13,-4.31 1.49,-8.99 -0.63,-4.67 -3.58,-7.91 -3.85,-4.21 -10.35,-4.33 1.22,-2.91 0.4,-5.82 -0.06,-0.22 -0.46,-2.34 -0.39,-2.08 -2.94,-2.05 -1.52,0.02 -6.2,1.87 -0.62,0.25 -1.01,0.13 -0.54,-0.17 -0.83,-0.75 14.92,-7.55 27.23,3.06 7.85,6.78 9.06,17.69 1.22,10.9 -4.81,19.94 -7.15,10.71 -21.07,10.32 z"
             id="path2962" />
          <path
             fill="#f8c0b4"
             d="m 134.25,119.46 q -8.79,1.44 -12.15,8.11 -3.22,6.4 -0.1,12.89 3.63,7.57 14,7.58 l 0.99,4.21 q 0.15,0.64 0.35,0.86 1.77,1.96 -0.41,1.77 a 0.77,0.59 11.9 0 0 -0.75,0.36 l -2.56,6.27 -5.87,-0.72 q -11.94,-3.84 -16.44,-15.1 -4.64,-11.64 0.69,-23.4 3.79,-7.63 11.21,-11.79 0.29,0.58 0.83,0.75 0.39,0.12 1.01,-0.13 4.68,-1.85 6.2,-1.87 2.55,-0.03 2.94,2.05 0.4,2.12 0.46,2.34 0.82,2.91 -0.4,5.82 z"
             id="path2964" />
          <path
             fill="#f8f2e0"
             d="m 134.25,119.46 q 6.5,0.12 10.35,4.33 2.95,3.24 3.58,7.91 0.64,4.68 -1.49,8.99 -3.14,6.33 -10.69,7.35 -10.37,-0.01 -14,-7.58 -3.12,-6.49 0.1,-12.89 3.36,-6.67 12.15,-8.11 z"
             id="path2966" />
          <path
             fill="#0fa7d2"
             d="m 215,121.29 q 0.77,13.65 -0.2,27.51 l -7.3,-0.84 -0.25,-25.67 z"
             id="path2968" />
          <path
             fill="#0bbfd5"
             d="m 54.62,121.44 8.63,0.85 -0.86,25.68 -7.58,0.79 q -0.63,-13.71 -0.19,-27.32 z"
             id="path2970" />
          <path
             fill="#6f1194"
             d="m 112,122.29 q -5.33,11.76 -0.69,23.4 4.5,11.26 16.44,15.1 -1.34,3.99 -0.41,8.29 -1.62,-0.21 -2.91,-0.74 -2.09,-0.86 -0.97,0.76 a 1.66,1.09 38.6 0 1 0.29,0.89 q -0.09,2.15 -2.15,3.7 a 1.81,1.81 -21.7 0 0 -0.71,1.64 q 0.38,3.63 1.93,6.43 a 1.35,1.28 83.7 0 0 0.72,0.61 q 2.47,0.81 4.21,-1.12 1.53,-1.69 2.8,-2.88 1.71,-1.6 3.46,-1.79 2.99,-0.34 5.24,2.13 -1.66,1.4 -2.4,3.49 a 0.97,0.95 2.3 0 1 -0.65,0.59 q -1.75,0.47 -1.08,2.15 -4.27,3.74 -6.18,4.5 -6.35,2.51 -10.87,-1.41 -1.86,-1.6 -2.97,-4.08 -1.09,-2.39 -1.33,-4.97 a 0.57,0.57 77.9 0 0 -0.75,-0.49 q -4.73,1.63 -9.44,1.04 -4.97,-0.64 -8.49,-3.46 -6.03,-4.83 -4.03,-13.76 0.76,-3.39 4.19,-3.77 a 1.38,1.31 -30.1 0 1 0.92,0.22 q 2.31,1.59 1.83,4.74 -0.81,5.33 2.91,7.7 2.59,1.66 6.06,1.15 3.29,-0.49 5.93,-2.66 a 0.96,0.95 -48.1 0 0 -0.08,-1.54 q -10.47,-6.83 -14,-18.62 a 0.53,0.52 75.7 0 0 -0.61,-0.37 q -2.44,0.52 -4.84,1.2 -2.82,0.8 -3.94,0.59 -2.39,-0.45 -2.97,-3.45 0.2,-2.11 1.78,-2.99 0.06,-0.03 3.01,-1.07 2.38,-0.84 4.89,-1.39 a 0.8,0.8 78.6 0 0 0.61,-0.92 q -1.23,-6.78 0.21,-13.9 1.48,0.71 3.19,0.53 1.29,-0.13 2.74,-1.35 1.59,-1.34 3.22,-2.61 0.28,-0.21 0.55,-0.77 0.35,-0.74 1.19,-0.52 a 1.83,1.22 34.2 0 0 0.93,0.01 q 1.55,-0.5 3.22,-0.23 z"
             id="path2972" />
          <path
             fill="#9fb4d9"
             d="m 193.55,158.46 q -2.87,11.25 4.7,19.25 -8.98,6.99 -15.71,16.14 a 0.41,0.4 -48.4 0 1 -0.62,0.04 q -5.21,-5.47 -12.67,-5.14 -10.03,0.45 -15,9.29 L 153.56,198 a 0.52,0.52 3.9 0 1 -0.48,-0.55 q 0.15,-2.38 1.54,-4.97 a 0.66,0.53 36.6 0 0 -0.19,-0.72 L 151,188.71 q 4.82,-3.75 5,-9.97 a 0.55,0.54 11.6 0 1 0.75,-0.49 q 4.01,1.6 8.16,1.47 4.15,-0.14 7.79,-2.08 8.58,-4.59 6.8,-15.64 -0.44,-2.74 -2.82,-3.34 -2.12,-0.54 -3.51,0.94 -1.43,1.51 -0.93,4.15 0.97,5.15 -3.63,7.28 -6.61,3.05 -11.28,-2.15 a 0.48,0.48 -40.5 0 1 0.06,-0.69 q 8.78,-7.21 12.99,-19 a 0.65,0.64 21.7 0 1 0.88,-0.37 q 2.55,1.16 4.87,1.74 2.79,0.69 4.7,-0.15 3.27,-1.46 1.06,-5.78 l -0.24,-1.15 a 1.06,0.91 61.3 0 1 0.18,-0.85 q 1.19,-1.44 1.42,-3.34 7.66,-0.81 3.25,-7 0.88,-1.41 -0.95,-1.78 a 0.31,0.3 24.4 0 1 -0.19,-0.48 q 1.78,-2.29 5.83,-3.84 3.31,-1.28 5.58,-0.61 a 1.47,1.31 79.2 0 1 0.76,0.58 q 2.59,3.85 2.96,8.34 0.2,2.38 -0.9,5.86 -0.9,2.85 -1.78,5.7 -0.64,2.08 -0.47,3.39 a 1.06,0.92 65.7 0 1 -0.25,0.84 q -3.29,3.5 -3.54,8.17 z"
             id="path2974" />
          <path
             fill="#27159f"
             d="m 186.5,132.29 q 4.41,6.19 -3.25,7 -2.35,-1.06 -2.84,-3.24 -0.5,-2.14 1.21,-3.49 1.97,-1.57 4.88,-0.27 z"
             id="path2976" />
          <circle
             fill="#51279c"
             cx="85.889999"
             cy="135.45"
             r="3.5599999"
             id="circle2978" />
          <path
             fill="#f99ea9"
             d="m 86.46,147.5 q 0.58,3 2.97,3.45 1.12,0.21 3.94,-0.59 2.4,-0.68 4.84,-1.2 a 0.53,0.52 75.7 0 1 0.61,0.37 q 3.53,11.79 14,18.62 a 0.96,0.95 -48.1 0 1 0.08,1.54 q -2.64,2.17 -5.93,2.66 -3.47,0.51 -6.06,-1.15 -3.72,-2.37 -2.91,-7.7 0.48,-3.15 -1.83,-4.74 a 1.38,1.31 -30.1 0 0 -0.92,-0.22 q -3.43,0.38 -4.19,3.77 -2,8.93 4.03,13.76 3.52,2.82 8.49,3.46 4.71,0.59 9.44,-1.04 a 0.57,0.57 77.9 0 1 0.75,0.49 q 0.24,2.58 1.33,4.97 1.11,2.48 2.97,4.08 4.52,3.92 10.87,1.41 1.91,-0.76 6.18,-4.5 6.59,7.9 15.88,3.77 l 3.43,3.05 a 0.66,0.53 36.6 0 1 0.19,0.72 q -1.39,2.59 -1.54,4.97 a 0.52,0.52 3.9 0 0 0.48,0.55 l 0.69,0.04 q -2.48,4.48 -1.31,9.95 -17.3,0.83 -34.63,0.51 a 1.03,1.03 89.4 0 1 -1.01,-0.99 q -0.52,-11.48 -8.56,-16.29 -5,-2.99 -10.53,-2.34 -5.78,0.68 -10.23,5.27 a 0.43,0.43 -40.7 0 1 -0.66,-0.05 q -6.28,-8.82 -14.13,-15.29 -1.74,-1.43 -0.48,-2.81 7.36,-10.57 0.63,-21.43 4.6,-7.08 13.12,-7.07 z"
             id="path2980" />
          <path
             fill="#5756a7"
             d="m 62.39,147.97 q 6.24,0.99 10.95,6.6 6.73,10.86 -0.63,21.43 -0.58,-0.58 -1.27,-2.44 -1.1,-2.93 -4.44,-2.6 2.52,-3.72 1.87,-7.64 -0.63,-3.86 -3.92,-6.02 -4.61,-3.03 -10.16,0.95 -1.76,-0.97 -2.79,-3.5 -0.58,-1.41 -2.54,-2.25 l 5.35,-3.74 z"
             id="path2982" />
          <path
             fill="#27159f"
             d="m 207.5,147.96 7.3,0.84 q 8.87,4.05 10.41,12.77 0.96,5.41 -1.05,10.19 -2.09,4.99 -6.98,8.17 -4.21,2.74 -9.19,2.14 a 1.56,1.5 33 0 0 -0.93,0.18 q -11.49,6.69 -18.63,17.75 -1,1.56 -1.31,3.94 -0.87,6.86 -5.17,12.34 2.71,-5.66 3.79,-11.78 0.61,-3.45 3.32,-7.44 5.08,-7.46 15.08,-13.7 a 1.56,1.55 -38.8 0 0 0.27,-2.43 q -2.14,-2.08 -6.16,-3.22 -7.57,-8 -4.7,-19.25 4.18,-9.02 13.95,-10.5 z m 1.29,26.0415 a 8.94,8.64 92.5 0 0 9.0218,-8.5546 8.94,8.64 92.5 0 0 -8.2418,-9.3084 8.94,8.64 92.5 0 0 -9.0218,8.5546 8.94,8.64 92.5 0 0 8.2418,9.3084 z"
             id="path2984" />
          <path
             fill="#c2768d"
             d="m 49.46,152.5 q 1.96,0.84 2.54,2.25 1.03,2.53 2.79,3.5 -8.19,11.74 5.33,16.1 1.07,3.68 -0.62,7.61 -12.2,-1.42 -15,-12.96 -2.31,-9.53 4.96,-16.5 z"
             id="path2986" />
          <path
             fill="#f8cab7"
             d="m 67,170.96 q -2.58,2.84 -6.88,3.39 -13.52,-4.36 -5.33,-16.1 5.55,-3.98 10.16,-0.95 3.29,2.16 3.92,6.02 0.65,3.92 -1.87,7.64 z"
             id="path2988" />
          <ellipse
             fill="#4df3f7"
             cx="0"
             cy="0"
             transform="rotate(92.5,25.579926,182.65814)"
             rx="8.9399996"
             ry="8.6400003"
             id="ellipse2990" />
          <path
             fill="#f78cba"
             d="m 127.34,169.08 q 9.03,2.3 17.95,-0.91 a 0.41,0.4 75.8 0 1 0.53,0.33 q 0.54,3.45 3,5.96 a 1.17,1.02 27 0 1 0.34,0.84 q -0.21,3.25 -1.73,6.15 -0.93,1.78 -2.84,1.17 -3.06,-0.97 -5.34,-3.91 -2.25,-2.47 -5.24,-2.13 -1.75,0.19 -3.46,1.79 -1.27,1.19 -2.8,2.88 -1.74,1.93 -4.21,1.12 a 1.35,1.28 83.7 0 1 -0.72,-0.61 q -1.55,-2.8 -1.93,-6.43 a 1.81,1.81 -21.7 0 1 0.71,-1.64 q 2.06,-1.55 2.15,-3.7 a 1.66,1.09 38.6 0 0 -0.29,-0.89 q -1.12,-1.62 0.97,-0.76 1.29,0.53 2.91,0.74 z"
             id="path2992" />
          <path
             fill="#7d1190"
             d="m 72.71,176 q -1.26,1.38 0.48,2.81 7.85,6.47 14.13,15.29 a 0.43,0.43 -40.7 0 0 0.66,0.05 q 4.45,-4.59 10.23,-5.27 5.53,-0.65 10.53,2.34 8.04,4.81 8.56,16.29 a 1.03,1.03 89.4 0 0 1.01,0.99 q 17.33,0.32 34.63,-0.51 2.63,1.98 1.43,5.47 a 0.8,0.79 7.3 0 1 -0.69,0.53 l -6.18,0.48 a 0.91,0.59 1.8 0 0 -0.76,0.46 l -0.28,0.98 a 0.46,0.35 -83.6 0 1 -0.3,0.31 q -0.74,0.11 0.09,0.49 l -31.86,0.04 a 2.96,2.95 -65.2 0 0 -1.92,0.71 q -9.27,7.96 -18.68,3.7 -5.04,-2.29 -7.86,-6.72 -2.9,-4.56 -2.88,-10.44 0.01,-1.85 -0.86,-3.35 -0.01,-0.02 -1.98,-2.71 Q 74,189.45 64.38,182.59 a 3.12,0.65 0.3 0 0 -2.1,-0.45 l -2.78,-0.18 q 1.69,-3.93 0.62,-7.61 4.3,-0.55 6.88,-3.39 3.34,-0.33 4.44,2.6 0.69,1.86 1.27,2.44 z m 36.48,29.6 a 8.97,8.97 0 0 0 -8.97,-8.97 8.97,8.97 0 0 0 -8.97,8.97 8.97,8.97 0 0 0 8.97,8.97 8.97,8.97 0 0 0 8.97,-8.97 z"
             id="path2994" />
          <path
             fill="#34139b"
             d="m 198.25,177.71 q 4.02,1.14 6.16,3.22 a 1.56,1.55 -38.8 0 1 -0.27,2.43 q -10,6.24 -15.08,13.7 -2.71,3.99 -3.32,7.44 -1.08,6.12 -3.79,11.78 -11.17,12.22 -24.82,1.31 a 4,3.79 -24.5 0 0 -2.44,-0.84 l -8.44,-0.04 q -0.83,-0.38 -0.09,-0.49 a 0.46,0.35 -83.6 0 0 0.3,-0.31 l 0.28,-0.98 a 0.91,0.59 1.8 0 1 0.76,-0.46 l 6.18,-0.48 a 0.8,0.79 7.3 0 0 0.69,-0.53 q 1.2,-3.49 -1.43,-5.47 -1.17,-5.47 1.31,-9.95 4.97,-8.84 15,-9.29 7.46,-0.33 12.67,5.14 a 0.41,0.4 -48.4 0 0 0.62,-0.04 q 6.73,-9.15 15.71,-16.14 z m -20.13,27.71 a 8.88,8.88 0 0 0 -8.88,-8.88 8.88,8.88 0 0 0 -8.88,8.88 8.88,8.88 0 0 0 8.88,8.88 8.88,8.88 0 0 0 8.88,-8.88 z"
             id="path2996" />
          <circle
             fill="#f8b6aa"
             cx="100.22"
             cy="205.60001"
             r="8.9700003"
             id="circle2998" />
          <circle
             fill="#b6d4e4"
             cx="169.24001"
             cy="205.42"
             r="8.8800001"
             id="circle3000" />
        </g>
        <path
           d="m 85.623798,238.01109 c -4.188478,0 -7.658931,3.41062 -7.658931,7.47943 0,2.99177 2.333581,4.84666 5.026174,6.70156 l 2.872099,2.0344 c 1.436049,1.07704 2.692593,1.6754 2.692593,4.30815 0,1.79507 -1.735227,2.99177 -3.530289,2.99177 -1.974568,0 -3.829465,-0.65819 -4.607326,-2.27374 -0.837695,-1.8549 -2.034403,-2.39342 -2.632757,-2.39342 -0.598354,0 -0.65819,0.89753 -0.65819,1.91474 0,0.89753 0.718025,2.99177 1.017202,3.76963 0.299177,0.77786 0.598354,0.83769 1.495885,1.1967 0.598354,0.23934 2.273745,0.47869 3.949137,0.47869 4.906502,0 9.035145,-3.64996 9.035145,-8.73597 0,-2.09424 -1.256543,-3.47045 -2.872099,-4.78683 l -4.906503,-3.7098 c -1.376214,-0.95736 -2.572922,-1.97457 -2.572922,-3.64996 0,-1.49588 1.256543,-2.57292 2.752428,-2.57292 1.854898,0 3.590124,1.0172 4.068807,2.39342 0.299177,1.1967 1.196708,1.49588 1.795062,1.49588 0.718025,0 0.718025,-0.59835 0.718025,-1.31638 0,-0.53852 -0.119671,-2.27374 -0.299177,-2.93193 -0.179506,-0.59836 -0.299177,-0.77786 -0.658189,-0.95737 -1.914733,-0.77786 -3.171276,-1.43605 -5.026174,-1.43605 z"
           id="path454"
           style="fill:url(#linearGradient366)" />
        <path
           d="m 101.83911,225.14648 c -1.79506,0 -3.290945,1.43605 -3.290945,3.23111 0,1.8549 1.43605,3.35078 3.290945,3.35078 1.85489,0 3.29094,-1.49588 3.29094,-3.35078 0,-1.79506 -1.49588,-3.23111 -3.29094,-3.23111 z m -2.154072,20.52354 v 11.60807 c 0,1.49589 -0.65819,3.35078 -2.273745,3.82947 -1.615556,0.47868 -2.632758,0.95736 -2.632758,1.55572 0,0.59835 0.538519,1.1967 2.094239,1.1967 1.316379,0 4.128646,-0.35901 5.325346,-0.35901 0.95737,0 3.94914,0.35901 5.26551,0.35901 1.55573,0 2.03441,-0.59835 2.03441,-1.1967 0,-0.59836 -0.95737,-1.07704 -2.57292,-1.55572 -1.61556,-0.47869 -2.27375,-2.33358 -2.27375,-3.82947 v -18.01046 c 0,-1.1967 0,-1.73522 -0.71802,-1.73522 -0.59836,0 -5.564691,1.97457 -6.22288,2.33358 -0.777861,0.35901 -1.735227,0.83769 -1.735227,1.49588 0,0.65819 0.598354,1.01721 1.256543,1.25655 1.43605,0.53852 2.453252,2.0344 2.453252,3.0516 z"
           id="path456"
           style="fill:url(#linearGradient368)" />
        <path
           d="m 121.5249,264.219 c 3.59012,0 6.82123,-2.93194 6.82123,-4.30815 0,-0.59836 -0.29917,-0.8377 -0.89753,-0.8377 -0.59835,0 -2.09424,1.07704 -4.30815,1.07704 -2.09423,0 -3.11144,-1.31638 -3.11144,-5.50486 v -11.18922 c 0,-0.83769 0.23934,-1.13687 0.95737,-1.13687 h 5.9237 c 0.8377,0 1.43605,-1.55572 1.43605,-2.15407 0,-0.59836 -0.23934,-1.37622 -1.1967,-1.37622 h -5.80404 c -0.77786,0 -1.31638,-0.29918 -1.31638,-0.89753 v -1.67539 c 0,-1.0172 -0.11967,-1.49589 -0.83769,-1.49589 -0.77786,0 -3.05161,2.27375 -3.8893,2.99177 -1.49589,1.25655 -4.00898,2.93194 -4.00898,3.76963 0,0.59836 1.37622,0.8377 1.91474,0.8377 2.21391,0 1.8549,0.29918 1.8549,0.8377 v 14.24082 c 0,5.08601 2.93193,6.82124 6.46222,6.82124 z"
           id="path458"
           style="fill:url(#linearGradient370)" />
        <path
           d="m 137.14187,249.55932 c 0,-4.30815 2.27375,-9.03514 6.58189,-9.03514 5.20568,0 7.95811,5.7442 7.95811,11.06955 0,4.42782 -1.85489,9.813 -6.28271,9.813 -5.5647,0 -8.25729,-6.22288 -8.25729,-11.84741 z m 7.00074,-11.54823 c -6.46222,0 -12.98428,5.68436 -12.98428,12.86461 0,7.12041 5.38519,13.3433 12.68511,13.3433 7.65893,0 13.76214,-6.52206 13.76214,-14.24083 0,-6.9409 -6.52206,-11.96708 -13.46297,-11.96708 z"
           id="path460"
           style="fill:url(#linearGradient372)" />
        <path
           d="m 167.29888,263.50097 c 0.95737,0 4.48766,0.35901 5.80403,0.35901 1.55573,0 2.03441,-0.59835 2.03441,-1.1967 0,-0.59836 -0.8377,-1.07704 -2.45325,-1.55572 -1.61556,-0.47869 -2.93194,-2.33358 -2.93194,-3.82947 l 0.11967,-11.6679 c 0,-1.55572 1.73523,-2.81227 3.11144,-2.81227 1.19671,0 2.99177,1.67539 3.8893,1.67539 0.29918,0 0.77787,-0.35901 0.95737,-0.53851 0.95737,-0.95737 1.79506,-2.51309 1.79506,-3.41062 0,-1.37622 -0.95736,-2.51309 -3.41061,-2.51309 -1.79507,0 -4.30815,1.31638 -5.26552,2.33358 -0.29918,0.35901 -1.19671,1.25655 -1.19671,0.35901 v -1.49588 c 0,-1.13687 0,-1.67539 -0.71802,-1.67539 -0.59836,0 -5.56469,1.97457 -6.22288,2.33358 -0.77786,0.35901 -1.73523,0.83769 -1.73523,1.49588 0,0.65819 0.59835,1.01721 1.25654,1.25655 1.43605,0.53852 2.45325,2.0344 2.45325,3.0516 v 11.60807 c 0,1.49589 -0.65819,3.35078 -2.27374,3.82947 -1.61556,0.47868 -2.33358,0.95736 -2.33358,1.55572 0,0.59835 0.23934,1.1967 1.79506,1.1967 1.31638,0 4.18848,-0.35901 5.32535,-0.35901 z"
           id="path462"
           style="fill:url(#linearGradient374)" />
        <path
           d="m 191.35261,261.64607 c 0.1795,0.41885 0.29917,0.95737 0.29917,1.49589 0,1.31638 -1.07703,3.94914 -2.45325,6.88107 -0.65819,1.37621 -1.97457,2.57292 -4.24831,2.57292 -1.79506,0 -3.59013,1.55572 -3.59013,3.35078 0,1.6754 1.13688,3.41062 3.05161,3.41062 2.75243,0 4.727,-2.99177 5.32535,-4.48765 l 11.54823,-30.45622 c 0.71803,-1.97457 1.91473,-3.17128 2.57292,-3.41062 0.89754,-0.29918 2.03441,-0.77786 2.03441,-1.37621 0,-0.59836 -0.47869,-1.19671 -1.43605,-1.19671 -0.89753,0 -1.97457,0.35901 -2.8721,0.35901 -0.89753,0 -2.39342,-0.35901 -3.29095,-0.35901 -0.95736,0 -1.49588,0.59835 -1.49588,1.19671 0,0.59835 0.77786,1.19671 1.67539,1.37621 0.35901,0.0598 1.0172,0.47868 1.0172,1.07704 0,0.41885 -0.11967,1.25654 -0.59835,2.45325 l -3.94914,10.41136 c -0.35901,0.89753 -0.59835,0.95737 -1.0172,-0.17951 l -4.84667,-12.20642 c -0.23934,-0.59835 0,-1.37621 0.29918,-1.43605 1.31638,-0.41885 2.0344,-0.89753 2.0344,-1.49588 0,-0.59836 -0.53852,-1.19671 -1.49588,-1.19671 -0.89754,0 -3.41062,0.35901 -4.30815,0.35901 -0.89753,0 -2.93194,-0.35901 -3.82947,-0.35901 -0.95736,0 -1.43605,0.59835 -1.43605,1.19671 0,0.59835 1.07704,1.07703 1.97457,1.37621 0.89753,0.29918 1.73523,2.21391 2.33358,3.76963 z"
           id="path464"
           style="fill:url(#linearGradient376)" />
      </g>
    </g>
  </g>
</svg>
