<?xml version="1.0" encoding="UTF-8" standalone="no"?>
<svg
   version="1.1"
   viewBox="0 0 270 270"
   id="svg3614"
   sodipodi:docname="sitory.svg"
   inkscape:version="1.2.2 (732a01da63, 2022-12-09, custom)"
   xmlns:inkscape="http://www.inkscape.org/namespaces/inkscape"
   xmlns:sodipodi="http://sodipodi.sourceforge.net/DTD/sodipodi-0.dtd"
   xmlns:xlink="http://www.w3.org/1999/xlink"
   xmlns="http://www.w3.org/2000/svg"
   xmlns:svg="http://www.w3.org/2000/svg">
  <defs
     id="defs3618">
    <linearGradient
       inkscape:collect="always"
       id="linearGradient5758">
      <stop
         style="stop-color:#292273;stop-opacity:1;"
         offset="0"
         id="stop5754" />
      <stop
         style="stop-color:#ea36d0;stop-opacity:1;"
         offset="1"
         id="stop5756" />
    </linearGradient>
    <linearGradient
       inkscape:collect="always"
       xlink:href="#linearGradient5758"
       id="linearGradient5760"
       x1="89.907406"
       y1="243.07999"
       x2="175.98718"
       y2="243.07999"
       gradientUnits="userSpaceOnUse"
       gradientTransform="translate(1.1065239,20.037792)" />
  </defs>
  <sodipodi:namedview
     id="namedview3616"
     pagecolor="#ffffff"
     bordercolor="#666666"
     borderopacity="1.0"
     inkscape:showpageshadow="2"
     inkscape:pageopacity="0.0"
     inkscape:pagecheckerboard="0"
     inkscape:deskcolor="#d1d1d1"
     showgrid="false"
     inkscape:zoom="1.7481481"
     inkscape:cx="142.43644"
     inkscape:cy="145.58263"
     inkscape:window-width="1904"
     inkscape:window-height="1040"
     inkscape:window-x="8"
     inkscape:window-y="32"
     inkscape:window-maximized="0"
     inkscape:current-layer="svg3614" />
  <g
     id="g6376"
     transform="translate(-1.1065238,-20.037792)">
    <path
       fill="#07e9a4"
       d="m 200.16,88.48 q -11.57,-2.86 -22.49,0.41 -6.43,1.92 -12.88,3.44 -4.08,-3.19 -7.94,-6.44 -6.11,-5.15 -14.09,-5.99 -15.74,-1.66 -26.14,9.55 -0.19,-0.73 0.36,-1.4 0.7,-2.35 0.77,-7.55 0.18,-12.58 -0.24,-24.91 16.94,-12.4 35.55,-1.9 21.39,12.05 39.88,23.87 5.65,3.62 7.22,10.92 z M 152.29,61.73 q -13.96,-3.85 -27.56,2.18 -2.35,1.04 -3.36,2.45 -2.07,2.87 1.45,4.81 a 2.83,2.83 48 0 0 2.46,0.13 q 12.56,-5.23 25.26,-3.01 4.72,0.83 3.9,-4.18 -0.31,-1.88 -2.15,-2.38 z"
       id="path3586" />
    <path
       fill="#ebb06b"
       d="m 117.51,55.59 q 0.42,12.33 0.24,24.91 -0.07,5.2 -0.77,7.55 -0.76,-3.83 -3.73,-1.55 -2.68,2.06 -14.81,14.55 -0.18,0.19 0.08,0.2 0.84,0.01 -0.04,0.48 -0.18,0.09 -0.32,0.2 -7.56,6 -16.41,9.86 -4.42,-21.95 10.31,-37.48 10.39,-10.95 25.45,-18.72 z"
       id="path3588" />
    <path
       fill="#fbfcfc"
       d="m 152.29,61.73 q 1.84,0.5 2.15,2.38 0.82,5.01 -3.9,4.18 -12.7,-2.22 -25.26,3.01 a 2.83,2.83 48 0 1 -2.46,-0.13 q -3.52,-1.94 -1.45,-4.81 1.01,-1.41 3.36,-2.45 13.6,-6.03 27.56,-2.18 z"
       id="path3590" />
    <path
       fill="#e08d76"
       d="m 116.98,88.05 q -0.55,0.67 -0.36,1.4 -9.99,10.35 -3.01,19.64 2.33,3.09 8.56,6.82 4.9,2.92 9.83,5.8 -1.51,0.42 -1.94,1.74 a 1.31,1.1 89.5 0 1 -0.58,0.7 q -1.22,0.61 -2.15,1.58 -1.21,1.26 -1.9,1.79 -3.54,2.74 -5.45,6.75 -1.39,2.92 -2.63,4.59 -2.93,3.93 -5.16,8.32 -10.62,-5.9 -19.75,-15.62 -8.19,-8.71 -10.69,-19.77 8.85,-3.86 16.41,-9.86 0.14,-0.11 0.32,-0.2 0.88,-0.47 0.04,-0.48 -0.26,-0.01 -0.08,-0.2 12.13,-12.49 14.81,-14.55 2.97,-2.28 3.73,1.55 z"
       id="path3592" />
    <path
       fill="#077184"
       d="m 200.16,88.48 q 1,11.96 -10.16,16.02 -1.82,0.66 -3.98,0.49 -1.6,-0.12 -3.81,-0.98 -9.98,-3.9 -17.42,-11.68 6.45,-1.52 12.88,-3.44 10.92,-3.27 22.49,-0.41 z"
       id="path3594" />
    <path
       fill="#dd7e7c"
       d="m 159.85,116.04 q -6.28,3.73 -13.22,5.73 -10.75,-6.27 -21.39,-12.63 -3.2,-1.91 -4.23,-3.63 -1.84,-3.09 0.27,-6.18 1.46,-2.14 3.79,-2.34 2.35,-0.2 4.74,1.2 15.01,8.77 30.04,17.85 z"
       id="path3596" />
    <path
       fill="#da4e96"
       d="m 159.85,116.04 q 7.62,4.06 15.71,9.9 10.52,7.59 15.52,19.27 -3.58,-1.67 -5.85,-4.73 a 1.86,1.49 77 0 0 -0.77,-0.61 q -5.25,-2.01 -10.38,0.61 -3.18,1.62 -5.91,3.93 -1.19,1.01 -2.57,1.68 -1.83,0.91 -2.59,1.58 -2.53,2.24 -4.55,5.2 -12.48,-6.8 -24.66,-13.87 -2.2,-1.28 -3.44,-1.3 -1.46,-0.02 -2.62,0.91 -1.05,0.84 -1.25,2.25 -0.41,2.99 2.52,4.62 12.42,6.89 24.46,13.95 1.75,1.03 1.78,3.05 0.08,5.03 -3.63,8.78 a 0.52,0.51 -44.6 0 1 -0.73,0 q -1.97,-1.97 -3.98,-3.15 -17.39,-10.26 -34.72,-20.93 2.23,-4.39 5.16,-8.32 1.24,-1.67 2.63,-4.59 1.91,-4.01 5.45,-6.75 0.69,-0.53 1.9,-1.79 0.93,-0.97 2.15,-1.58 a 1.31,1.1 89.5 0 0 0.58,-0.7 q 0.43,-1.32 1.94,-1.74 3.6,2.2 7.33,4.17 2.79,1.47 4.61,1.14 3.28,-0.59 2.69,-5.25 6.94,-2 13.22,-5.73 z"
       id="path3598" />
    <path
       fill="#ea36d0"
       d="m 191.08,145.21 q 2.31,5.42 2.67,10.04 1.19,15.15 -7.69,27.31 -3.62,4.95 -8.21,9.02 -14.61,12.95 -31.85,22.13 -1.13,-2.33 1.25,-6 1.31,-2.02 3.03,-3.71 0.48,-0.46 1.09,-2.29 0.44,-1.3 1,-2.31 3.87,-6.98 4.82,-11.21 1.75,-7.84 4.35,-15.4 4.38,-6.45 2.71,-13.54 -1.07,-4.53 -5.79,-6.38 2.02,-2.96 4.55,-5.2 0.76,-0.67 2.59,-1.58 1.38,-0.67 2.57,-1.68 2.73,-2.31 5.91,-3.93 5.13,-2.62 10.38,-0.61 a 1.86,1.49 77 0 1 0.77,0.61 q 2.27,3.06 5.85,4.73 z"
       id="path3600" />
    <path
       fill="#0dab92"
       d="m 112.5,176.05 q -14.01,-1.8 -23.25,-1.3 -10.49,0.56 -17.21,-0.25 -0.48,-5.9 2.37,-10.4 2.87,-4.53 8.03,-5.88 6.32,-1.65 12.48,2.62 9.54,6.61 17.58,15.21 z"
       id="path3602" />
    <path
       fill="#d12a9e"
       d="m 161.54,172.79 q -2.6,7.56 -4.35,15.4 -0.95,4.23 -4.82,11.21 -0.56,1.01 -1,2.31 -0.61,1.83 -1.09,2.29 -1.72,1.69 -3.03,3.71 -2.38,3.67 -1.25,6 -4.98,2.59 -10.85,3.29 -1.3,-5.61 -0.19,-11.25 l 0.04,-1.21 q 3.28,0.13 6.34,-0.81 2.57,-0.8 3.48,-2.55 1.22,-2.37 -0.77,-4.96 a 1.14,1.13 64 0 0 -1.19,-0.42 q -4.02,1.03 -8.11,0.91 -0.69,-5.4 0.5,-10.67 16.36,-0.43 26.29,-13.25 z"
       id="path3604" />
    <path
       fill="#292273"
       d="m 72.04,174.5 q 6.72,0.81 17.21,0.25 9.24,-0.5 23.25,1.3 6.64,4.58 10.31,6.64 5.43,3.05 12.44,3.35 -1.19,5.27 -0.5,10.67 -5.24,-0.3 -10.28,-1.81 a 1.54,1.43 41.7 0 0 -0.95,0.02 q -4,1.5 -2.5,4.62 0.88,1.83 3.36,2.91 5,2.17 10.62,2.09 l -0.04,1.21 q -5.42,0.28 -10.15,-1.31 -3.17,-1.07 -4.73,-3.93 -0.04,-0.07 -0.8,-2.61 -0.76,-2.56 -4.03,-1.9 -3.75,0.76 -7.75,-0.5 -1.33,-0.42 -5.47,0.91 a 1.36,0.87 -76.7 0 0 -0.65,0.63 q -0.33,0.64 -1.1,1.18 a 0.56,0.56 -48.1 0 0 0.05,0.94 l 7.79,4.29 a 0.9,0.57 23 0 1 0.5,0.72 q -0.06,0.44 -0.62,0.62 -17.27,-9.82 -30.19,-18.6 -5.99,-4.08 -5.77,-11.69 z"
       id="path3606" />
    <path
       fill="#fbfcfc"
       d="m 134.75,196.71 q 4.09,0.12 8.11,-0.91 a 1.14,1.13 64 0 1 1.19,0.42 q 1.99,2.59 0.77,4.96 -0.91,1.75 -3.48,2.55 -3.06,0.94 -6.34,0.81 -5.62,0.08 -10.62,-2.09 -2.48,-1.08 -3.36,-2.91 -1.5,-3.12 2.5,-4.62 a 1.54,1.43 41.7 0 1 0.95,-0.02 q 5.04,1.51 10.28,1.81 z"
       id="path3608" />
    <path
       fill="#33389a"
       d="m 134.96,205.75 q -1.11,5.64 0.19,11.25 -5.72,0.03 -10.82,-2.32 -1.37,-0.63 -8.28,-4.74 -4.11,-2.45 -8.05,-5.15 0.56,-0.18 0.62,-0.62 a 0.9,0.57 23 0 0 -0.5,-0.72 l -7.79,-4.29 a 0.56,0.56 -48.1 0 1 -0.05,-0.94 q 0.77,-0.54 1.1,-1.18 a 1.36,0.87 -76.7 0 1 0.65,-0.63 q 4.14,-1.33 5.47,-0.91 4,1.26 7.75,0.5 3.27,-0.66 4.03,1.9 0.76,2.54 0.8,2.61 1.56,2.86 4.73,3.93 4.73,1.59 10.15,1.31 z"
       id="path3610" />
    <text
       xml:space="preserve"
       style="font-style:normal;font-variant:normal;font-weight:normal;font-stretch:normal;font-size:40px;line-height:1.25;font-family:'EB Garamond';-inkscape-font-specification:'EB Garamond, Normal';font-variant-ligatures:normal;font-variant-caps:normal;font-variant-numeric:normal;font-variant-east-asian:normal;fill:url(#linearGradient5760);fill-opacity:1;stroke:none"
       x="91.270111"
       y="250.75999"
       id="text5316"><tspan
         sodipodi:role="line"
         id="tspan5314"
         x="91.270111"
         y="250.75999"
         style="fill:url(#linearGradient5760);fill-opacity:1">sitory</tspan></text>
  </g>
</svg>
