<?xml version="1.0" encoding="UTF-8" standalone="no"?>
<svg
   version="1.1"
   viewBox="0 0 270 270"
   id="svg3614"
   sodipodi:docname="sitory.svg"
   inkscape:version="1.2.2 (732a01da63, 2022-12-09, custom)"
   xmlns:inkscape="http://www.inkscape.org/namespaces/inkscape"
   xmlns:sodipodi="http://sodipodi.sourceforge.net/DTD/sodipodi-0.dtd"
   xmlns:xlink="http://www.w3.org/1999/xlink"
   xmlns="http://www.w3.org/2000/svg"
   xmlns:svg="http://www.w3.org/2000/svg">
  <defs
     id="defs3618">
    <linearGradient
       inkscape:collect="always"
       id="linearGradient5758">
      <stop
         style="stop-color:#292273;stop-opacity:1;"
         offset="0"
         id="stop5754" />
      <stop
         style="stop-color:#ea36d0;stop-opacity:1;"
         offset="1"
         id="stop5756" />
    </linearGradient>
    <linearGradient
       inkscape:collect="always"
       xlink:href="#linearGradient5758"
       id="linearGradient5760"
       x1="89.907406"
       y1="243.07999"
       x2="175.98718"
       y2="243.07999"
       gradientUnits="userSpaceOnUse"
       gradientTransform="translate(1.1065239,20.037792)" />
    <linearGradient
       inkscape:collect="always"
       xlink:href="#linearGradient5758"
       id="linearGradient321"
       gradientUnits="userSpaceOnUse"
       x1="89.907406"
       y1="243.07999"
       x2="175.98718"
       y2="243.07999" />
  </defs>
  <sodipodi:namedview
     id="namedview3616"
     pagecolor="#ffffff"
     bordercolor="#666666"
     borderopacity="1.0"
     inkscape:showpageshadow="2"
     inkscape:pageopacity="0.0"
     inkscape:pagecheckerboard="0"
     inkscape:deskcolor="#d1d1d1"
     showgrid="false"
     inkscape:zoom="2.994175"
     inkscape:cx="110.38099"
     inkscape:cy="139.10343"
     inkscape:window-width="1904"
     inkscape:window-height="1160"
     inkscape:window-x="8"
     inkscape:window-y="32"
     inkscape:window-maximized="0"
     inkscape:current-layer="text5316" />
  <path
     fill="#07e9a4"
     d="m 199.05348,68.442208 q -11.57,-2.86 -22.49,0.41 -6.43,1.92 -12.88,3.44 -4.08,-3.19 -7.94,-6.44 -6.11,-5.15 -14.09,-5.99 -15.74,-1.66 -26.14,9.55 -0.19,-0.73 0.36,-1.4 0.7,-2.35 0.77,-7.55 0.18,-12.58 -0.24,-24.91 16.94,-12.4 35.55,-1.9 21.39,12.05 39.88,23.87 5.65,3.62 7.22,10.92 z m -47.87,-26.75 q -13.96,-3.85 -27.56,2.18 -2.35,1.04 -3.36,2.45 -2.07,2.87 1.45,4.81 a 2.83,2.83 0 0 0 2.46,0.13 q 12.56,-5.23 25.26,-3.01 4.72,0.83 3.9,-4.18 -0.31,-1.88 -2.15,-2.38 z"
     id="path3586" />
  <path
     fill="#ebb06b"
     d="m 116.40348,35.552208 q 0.42,12.33 0.24,24.91 -0.07,5.2 -0.77,7.55 -0.76,-3.83 -3.73,-1.55 -2.68,2.06 -14.810004,14.55 -0.18,0.19 0.08,0.2 0.84,0.01 -0.04,0.48 -0.18,0.09 -0.32,0.2 -7.56,6 -16.41,9.86 -4.42,-21.95 10.31,-37.48 10.390004,-10.95 25.450004,-18.72 z"
     id="path3588" />
  <path
     fill="#fbfcfc"
     d="m 151.18348,41.692208 q 1.84,0.5 2.15,2.38 0.82,5.01 -3.9,4.18 -12.7,-2.22 -25.26,3.01 a 2.83,2.83 0 0 1 -2.46,-0.13 q -3.52,-1.94 -1.45,-4.81 1.01,-1.41 3.36,-2.45 13.6,-6.03 27.56,-2.18 z"
     id="path3590" />
  <path
     fill="#e08d76"
     d="m 115.87348,68.012208 q -0.55,0.67 -0.36,1.4 -9.99,10.35 -3.01,19.64 2.33,3.09 8.56,6.82 4.9,2.92 9.83,5.800002 -1.51,0.42 -1.94,1.74 a 1.31,1.1 89.5 0 1 -0.58,0.7 q -1.22,0.61 -2.15,1.58 -1.21,1.26 -1.9,1.79 -3.54,2.74 -5.45,6.75 -1.39,2.92 -2.63,4.59 -2.93,3.93 -5.16,8.32 -10.62,-5.9 -19.750004,-15.62 -8.19,-8.71 -10.69,-19.770002 8.85,-3.86 16.41,-9.86 0.14,-0.11 0.32,-0.2 0.88,-0.47 0.04,-0.48 -0.26,-0.01 -0.08,-0.2 12.130004,-12.49 14.810004,-14.55 2.97,-2.28 3.73,1.55 z"
     id="path3592" />
  <path
     fill="#077184"
     d="m 199.05348,68.442208 q 1,11.96 -10.16,16.02 -1.82,0.66 -3.98,0.49 -1.6,-0.12 -3.81,-0.98 -9.98,-3.9 -17.42,-11.68 6.45,-1.52 12.88,-3.44 10.92,-3.27 22.49,-0.41 z"
     id="path3594" />
  <path
     fill="#dd7e7c"
     d="m 158.74348,96.002208 q -6.28,3.73 -13.22,5.730002 -10.75,-6.270002 -21.39,-12.630002 -3.2,-1.91 -4.23,-3.63 -1.84,-3.09 0.27,-6.18 1.46,-2.14 3.79,-2.34 2.35,-0.2 4.74,1.2 15.01,8.77 30.04,17.85 z"
     id="path3596" />
  <path
     fill="#da4e96"
     d="m 158.74348,96.002208 q 7.62,4.060002 15.71,9.900002 10.52,7.59 15.52,19.27 -3.58,-1.67 -5.85,-4.73 a 1.86,1.49 77 0 0 -0.77,-0.61 q -5.25,-2.01 -10.38,0.61 -3.18,1.62 -5.91,3.93 -1.19,1.01 -2.57,1.68 -1.83,0.91 -2.59,1.58 -2.53,2.24 -4.55,5.2 -12.48,-6.8 -24.66,-13.87 -2.2,-1.28 -3.44,-1.3 -1.46,-0.02 -2.62,0.91 -1.05,0.84 -1.25,2.25 -0.41,2.99 2.52,4.62 12.42,6.89 24.46,13.95 1.75,1.03 1.78,3.05 0.08,5.03 -3.63,8.78 a 0.51,0.52 45.4 0 1 -0.73,0 q -1.97,-1.97 -3.98,-3.15 -17.39,-10.26 -34.72,-20.93 2.23,-4.39 5.16,-8.32 1.24,-1.67 2.63,-4.59 1.91,-4.01 5.45,-6.75 0.69,-0.53 1.9,-1.79 0.93,-0.97 2.15,-1.58 a 1.31,1.1 89.5 0 0 0.58,-0.7 q 0.43,-1.32 1.94,-1.74 3.6,2.2 7.33,4.17 2.79,1.47 4.61,1.14 3.28,-0.59 2.69,-5.25 6.94,-2.000002 13.22,-5.730002 z"
     id="path3598" />
  <path
     fill="#ea36d0"
     d="m 189.97348,125.17221 q 2.31,5.42 2.67,10.04 1.19,15.15 -7.69,27.31 -3.62,4.95 -8.21,9.02 -14.61,12.95 -31.85,22.13 -1.13,-2.33 1.25,-6 1.31,-2.02 3.03,-3.71 0.48,-0.46 1.09,-2.29 0.44,-1.3 1,-2.31 3.87,-6.98 4.82,-11.21 1.75,-7.84 4.35,-15.4 4.38,-6.45 2.71,-13.54 -1.07,-4.53 -5.79,-6.38 2.02,-2.96 4.55,-5.2 0.76,-0.67 2.59,-1.58 1.38,-0.67 2.57,-1.68 2.73,-2.31 5.91,-3.93 5.13,-2.62 10.38,-0.61 a 1.86,1.49 77 0 1 0.77,0.61 q 2.27,3.06 5.85,4.73 z"
     id="path3600" />
  <path
     fill="#0dab92"
     d="m 111.39348,156.01221 q -14.010004,-1.8 -23.250004,-1.3 -10.49,0.56 -17.21,-0.25 -0.48,-5.9 2.37,-10.4 2.87,-4.53 8.03,-5.88 6.32,-1.65 12.48,2.62 9.540004,6.61 17.580004,15.21 z"
     id="path3602" />
  <path
     fill="#d12a9e"
     d="m 160.43348,152.75221 q -2.6,7.56 -4.35,15.4 -0.95,4.23 -4.82,11.21 -0.56,1.01 -1,2.31 -0.61,1.83 -1.09,2.29 -1.72,1.69 -3.03,3.71 -2.38,3.67 -1.25,6 -4.98,2.59 -10.85,3.29 -1.3,-5.61 -0.19,-11.25 l 0.04,-1.21 q 3.28,0.13 6.34,-0.81 2.57,-0.8 3.48,-2.55 1.22,-2.37 -0.77,-4.96 a 1.14,1.13 64 0 0 -1.19,-0.42 q -4.02,1.03 -8.11,0.91 -0.69,-5.4 0.5,-10.67 16.36,-0.43 26.29,-13.25 z"
     id="path3604" />
  <path
     fill="#292273"
     d="m 70.933476,154.46221 q 6.72,0.81 17.21,0.25 9.24,-0.5 23.250004,1.3 6.64,4.58 10.31,6.64 5.43,3.05 12.44,3.35 -1.19,5.27 -0.5,10.67 -5.24,-0.3 -10.28,-1.81 a 1.54,1.43 41.7 0 0 -0.95,0.02 q -4,1.5 -2.5,4.62 0.88,1.83 3.36,2.91 5,2.17 10.62,2.09 l -0.04,1.21 q -5.42,0.28 -10.15,-1.31 -3.17,-1.07 -4.73,-3.93 -0.04,-0.07 -0.8,-2.61 -0.76,-2.56 -4.03,-1.9 -3.75,0.76 -7.75,-0.5 -1.33,-0.42 -5.47,0.91 a 0.87,1.36 13.3 0 0 -0.65,0.63 q -0.330004,0.64 -1.100004,1.18 a 0.56,0.56 0 0 0 0.05,0.94 l 7.790004,4.29 a 0.9,0.57 23 0 1 0.5,0.72 q -0.06,0.44 -0.62,0.62 -17.270004,-9.82 -30.190004,-18.6 -5.99,-4.08 -5.77,-11.69 z"
     id="path3606" />
  <path
     fill="#fbfcfc"
     d="m 133.64348,176.67221 q 4.09,0.12 8.11,-0.91 a 1.14,1.13 64 0 1 1.19,0.42 q 1.99,2.59 0.77,4.96 -0.91,1.75 -3.48,2.55 -3.06,0.94 -6.34,0.81 -5.62,0.08 -10.62,-2.09 -2.48,-1.08 -3.36,-2.91 -1.5,-3.12 2.5,-4.62 a 1.54,1.43 41.7 0 1 0.95,-0.02 q 5.04,1.51 10.28,1.81 z"
     id="path3608" />
  <path
     fill="#33389a"
     d="m 133.85348,185.71221 q -1.11,5.64 0.19,11.25 -5.72,0.03 -10.82,-2.32 -1.37,-0.63 -8.28,-4.74 -4.11,-2.45 -8.05,-5.15 0.56,-0.18 0.62,-0.62 a 0.9,0.57 23 0 0 -0.5,-0.72 l -7.790004,-4.29 a 0.56,0.56 0 0 1 -0.05,-0.94 q 0.77,-0.54 1.100004,-1.18 a 0.87,1.36 13.3 0 1 0.65,-0.63 q 4.14,-1.33 5.47,-0.91 4,1.26 7.75,0.5 3.27,-0.66 4.03,1.9 0.76,2.54 0.8,2.61 1.56,2.86 4.73,3.93 4.73,1.59 10.15,1.31 z"
     id="path3610" />
  <g
     aria-label="sitory"
     id="text5316"
     style="font-size:40px;line-height:1.25;font-family:'EB Garamond';-inkscape-font-specification:'EB Garamond, Normal';fill:url(#linearGradient321)">
    <path
       d="m 96.683589,213.5222 c -2.8,0 -5.12,2.28 -5.12,5 0,2 1.56,3.24 3.36,4.48 l 1.92,1.36 c 0.96,0.72 1.8,1.12 1.8,2.88 0,1.2 -1.16,2 -2.36,2 -1.32,0 -2.56,-0.44 -3.08,-1.52 -0.56,-1.24 -1.36,-1.6 -1.76,-1.6 -0.4,0 -0.44,0.6 -0.44,1.28 0,0.6 0.48,2 0.68,2.52 0.2,0.52 0.4,0.56 1,0.8 0.4,0.16 1.52,0.32 2.64,0.32 3.28,0 6.040001,-2.44 6.040001,-5.84 0,-1.4 -0.84,-2.32 -1.920001,-3.2 l -3.28,-2.48 c -0.92,-0.64 -1.72,-1.32 -1.72,-2.44 0,-1 0.84,-1.72 1.84,-1.72 1.24,0 2.4,0.68 2.72,1.6 0.2,0.8 0.8,1 1.200001,1 0.48,0 0.48,-0.4 0.48,-0.88 0,-0.36 -0.08,-1.52 -0.2,-1.96 -0.12,-0.4 -0.2,-0.52 -0.44,-0.64 -1.280001,-0.52 -2.120001,-0.96 -3.360001,-0.96 z"
       id="path387" />
    <path
       d="m 107.52354,204.9222 c -1.2,0 -2.2,0.96 -2.2,2.16 0,1.24 0.96,2.24 2.2,2.24 1.24,0 2.2,-1 2.2,-2.24 0,-1.2 -1,-2.16 -2.2,-2.16 z m -1.44,13.72 v 7.76 c 0,1 -0.44,2.24 -1.52,2.56 -1.08,0.32 -1.76,0.64 -1.76,1.04 0,0.4 0.36,0.8 1.4,0.8 0.88,0 2.76,-0.24 3.56,-0.24 0.64,0 2.64,0.24 3.52,0.24 1.04,0 1.36,-0.4 1.36,-0.8 0,-0.4 -0.64,-0.72 -1.72,-1.04 -1.08,-0.32 -1.52,-1.56 -1.52,-2.56 v -12.04 c 0,-0.8 0,-1.16 -0.48,-1.16 -0.4,0 -3.72,1.32 -4.16,1.56 -0.52,0.24 -1.16,0.56 -1.16,1 0,0.44 0.4,0.68 0.84,0.84 0.96,0.36 1.64,1.36 1.64,2.04 z"
       id="path384" />
    <path
       d="m 120.6835,231.0422 c 2.4,0 4.56,-1.96 4.56,-2.88 0,-0.4 -0.2,-0.56 -0.6,-0.56 -0.4,0 -1.4,0.72 -2.88,0.72 -1.4,0 -2.08,-0.88 -2.08,-3.68 v -7.48 c 0,-0.56 0.16,-0.76 0.64,-0.76 h 3.96 c 0.56,0 0.96,-1.04 0.96,-1.44 0,-0.4 -0.16,-0.92 -0.8,-0.92 h -3.88 c -0.52,0 -0.88,-0.2 -0.88,-0.6 v -1.12 c 0,-0.68 -0.08,-1 -0.56,-1 -0.52,0 -2.04,1.52 -2.6,2 -1,0.84 -2.68,1.96 -2.68,2.52 0,0.4 0.92,0.56 1.28,0.56 1.48,0 1.24,0.2 1.24,0.56 v 9.52 c 0,3.4 1.96,4.56 4.32,4.56 z"
       id="path381" />
    <path
       d="m 131.12345,221.2422 c 0,-2.88 1.52,-6.04 4.4,-6.04 3.48,0 5.32,3.84 5.32,7.4 0,2.96 -1.24,6.56 -4.2,6.56 -3.72,0 -5.52,-4.16 -5.52,-7.92 z m 4.68,-7.72 c -4.32,0 -8.68,3.8 -8.68,8.6 0,4.76 3.6,8.92 8.48,8.92 5.12,0 9.2,-4.36 9.2,-9.52 0,-4.64 -4.36,-8 -9,-8 z"
       id="path378" />
    <path
       d="m 151.28343,230.5622 c 0.64,0 3,0.24 3.88,0.24 1.04,0 1.36,-0.4 1.36,-0.8 0,-0.4 -0.56,-0.72 -1.64,-1.04 -1.08,-0.32 -1.96,-1.56 -1.96,-2.56 l 0.08,-7.8 c 0,-1.04 1.16,-1.88 2.08,-1.88 0.8,0 2,1.12 2.6,1.12 0.2,0 0.52,-0.24 0.64,-0.36 0.64,-0.64 1.2,-1.68 1.2,-2.28 0,-0.92 -0.64,-1.68 -2.28,-1.68 -1.2,0 -2.88,0.88 -3.52,1.56 -0.2,0.24 -0.8,0.84 -0.8,0.24 v -1 c 0,-0.76 0,-1.12 -0.48,-1.12 -0.4,0 -3.72,1.32 -4.16,1.56 -0.52,0.24 -1.16,0.56 -1.16,1 0,0.44 0.4,0.68 0.84,0.84 0.96,0.36 1.64,1.36 1.64,2.04 v 7.76 c 0,1 -0.44,2.24 -1.52,2.56 -1.08,0.32 -1.56,0.64 -1.56,1.04 0,0.4 0.16,0.8 1.2,0.8 0.88,0 2.8,-0.24 3.56,-0.24 z"
       id="path375" />
    <path
       d="m 167.36336,229.3222 c 0.12,0.28 0.2,0.64 0.2,1 0,0.88 -0.72,2.64 -1.64,4.6 -0.44,0.92 -1.32,1.72 -2.84,1.72 -1.2,0 -2.4,1.04 -2.4,2.24 0,1.12 0.76,2.28 2.04,2.28 1.84,0 3.16,-2 3.56,-3 l 7.72,-20.36 c 0.48,-1.32 1.28,-2.12 1.72,-2.28 0.6,-0.2 1.36,-0.52 1.36,-0.92 0,-0.4 -0.32,-0.8 -0.96,-0.8 -0.6,0 -1.32,0.24 -1.92,0.24 -0.6,0 -1.6,-0.24 -2.2,-0.24 -0.64,0 -1,0.4 -1,0.8 0,0.4 0.52,0.8 1.12,0.92 0.24,0.04 0.68,0.32 0.68,0.72 0,0.28 -0.08,0.84 -0.4,1.64 l -2.64,6.96 c -0.24,0.6 -0.4,0.64 -0.68,-0.12 l -3.24,-8.16 c -0.16,-0.4 0,-0.92 0.2,-0.96 0.88,-0.28 1.36,-0.6 1.36,-1 0,-0.4 -0.36,-0.8 -1,-0.8 -0.6,0 -2.28,0.24 -2.88,0.24 -0.6,0 -1.96,-0.24 -2.56,-0.24 -0.64,0 -0.96,0.4 -0.96,0.8 0,0.4 0.72,0.72 1.32,0.92 0.6,0.2 1.16,1.48 1.56,2.52 z"
       id="path372" />
  </g>
</svg>
